<svg width="1280" height="440" viewBox="0 0 1280 440" xmlns="http://www.w3.org/2000/svg">
<rect width="1280" height="440" fill="#1a1814"/>
<circle cx="1180" cy="30" r="150" fill="none" stroke="#52b788" stroke-opacity="0.15" stroke-width="40"/>
<circle cx="1200" cy="470" r="90" fill="none" stroke="#52b788" stroke-opacity="0.10" stroke-width="25"/>
<circle cx="1090" cy="250" r="60" fill="none" stroke="#b7e4c7" stroke-opacity="0.08" stroke-width="16"/>
<rect x="72" y="96" width="56" height="4" rx="2" fill="#52b788"/><g fill="#52b788"><path transform="translate(72.00,130.00) scale(0.01500,-0.01500)" d="M109 0 2 700H87L158 160L257 700H343L442 160L513 700H598L491 0H395L300 538L205 0Z"/><path transform="translate(84.00,130.00) scale(0.01500,-0.01500)" d="M300 -12Q215 -12 154.0 33.0Q93 78 60.5 159.5Q28 241 28 350Q28 459 60.5 540.5Q93 622 154.0 667.0Q215 712 300 712Q385 712 446.0 667.0Q507 622 539.5 540.5Q572 459 572 350Q572 241 539.5 159.5Q507 78 446.0 33.0Q385 -12 300 -12ZM300 67Q383 67 434.5 141.0Q486 215 486 350Q486 485 434.5 559.0Q383 633 300 633Q216 633 165.0 559.0Q114 485 114 350Q114 215 165.0 141.0Q216 67 300 67Z"/><path transform="translate(96.00,130.00) scale(0.01500,-0.01500)" d="M82 0V700H297Q378 700 430.5 673.0Q483 646 509.0 599.5Q535 553 535 494Q535 425 499.5 372.5Q464 320 391 299L543 0H443L302 287H297H166V0ZM166 364H294Q374 364 411.5 400.5Q449 437 449 494Q449 554 412.5 589.0Q376 624 293 624H166Z"/><path transform="translate(108.00,130.00) scale(0.01500,-0.01500)" d="M82 0V700H166V374L440 700H547L252 352V348L551 0H442L166 321V0Z"/><path transform="translate(120.00,130.00) scale(0.01500,-0.01500)" d="M91 0V700H528V622H175V378H477V303H175V0Z"/><path transform="translate(132.00,130.00) scale(0.01500,-0.01500)" d="M300 -12Q215 -12 154.0 33.0Q93 78 60.5 159.5Q28 241 28 350Q28 459 60.5 540.5Q93 622 154.0 667.0Q215 712 300 712Q385 712 446.0 667.0Q507 622 539.5 540.5Q572 459 572 350Q572 241 539.5 159.5Q507 78 446.0 33.0Q385 -12 300 -12ZM300 67Q383 67 434.5 141.0Q486 215 486 350Q486 485 434.5 559.0Q383 633 300 633Q216 633 165.0 559.0Q114 485 114 350Q114 215 165.0 141.0Q216 67 300 67Z"/><path transform="translate(144.00,130.00) scale(0.01500,-0.01500)" d="M82 0V700H297Q378 700 430.5 673.0Q483 646 509.0 599.5Q535 553 535 494Q535 425 499.5 372.5Q464 320 391 299L543 0H443L302 287H297H166V0ZM166 364H294Q374 364 411.5 400.5Q449 437 449 494Q449 554 412.5 589.0Q376 624 293 624H166Z"/><path transform="translate(156.00,130.00) scale(0.01500,-0.01500)" d="M305 -12Q220 -12 158.5 33.0Q97 78 64.5 159.0Q32 240 32 350Q32 459 64.5 540.5Q97 622 158.5 667.0Q220 712 305 712Q413 712 479.0 652.5Q545 593 556 494H463Q453 553 413.0 593.0Q373 633 305 633Q218 633 168.0 557.5Q118 482 118 350Q118 217 168.0 142.0Q218 67 305 67Q376 67 414.5 105.0Q453 143 463 203H556Q540 103 476.5 45.5Q413 -12 305 -12Z"/><path transform="translate(168.00,130.00) scale(0.01500,-0.01500)" d="M86 0V700H523V624H170V391H493V315H170V76H523V0Z"/><path transform="translate(192.00,130.00) scale(0.01500,-0.01500)" d="M74 0V700H307Q387 700 438.0 671.0Q489 642 513.0 594.0Q537 546 537 488Q537 430 513.0 382.0Q489 334 438.0 305.0Q387 276 307 276H158V0ZM158 353H305Q379 353 415.0 390.5Q451 428 451 488Q451 548 415.0 586.0Q379 624 305 624H158Z"/><path transform="translate(204.00,130.00) scale(0.01500,-0.01500)" d="M82 0V700H297Q378 700 430.5 673.0Q483 646 509.0 599.5Q535 553 535 494Q535 425 499.5 372.5Q464 320 391 299L543 0H443L302 287H297H166V0ZM166 364H294Q374 364 411.5 400.5Q449 437 449 494Q449 554 412.5 589.0Q376 624 293 624H166Z"/><path transform="translate(216.00,130.00) scale(0.01500,-0.01500)" d="M86 0V700H523V624H170V391H493V315H170V76H523V0Z"/><path transform="translate(228.00,130.00) scale(0.01500,-0.01500)" d="M307 -12Q233 -12 178.5 16.0Q124 44 94.5 94.0Q65 144 64 211H152Q153 151 192.5 107.5Q232 64 307 64Q376 64 413.5 97.5Q451 131 451 178Q451 217 433.0 243.5Q415 270 374.5 290.5Q334 311 266 333Q170 362 126.0 412.0Q82 462 82 536Q82 586 108.0 626.0Q134 666 183.0 689.0Q232 712 302 712Q368 712 417.5 687.5Q467 663 494.5 619.0Q522 575 522 518H434Q434 546 419.0 573.0Q404 600 374.0 618.0Q344 636 298 636Q243 636 206.0 609.5Q169 583 169 537Q169 502 185.5 478.0Q202 454 240.0 434.5Q278 415 343 393Q404 373 447.5 346.5Q491 320 514.5 281.0Q538 242 538 184Q538 127 509.0 83.0Q480 39 428.0 13.5Q376 -12 307 -12Z"/><path transform="translate(240.00,130.00) scale(0.01500,-0.01500)" d="M86 0V700H523V624H170V391H493V315H170V76H523V0Z"/><path transform="translate(252.00,130.00) scale(0.01500,-0.01500)" d="M82 0V700H297Q378 700 430.5 673.0Q483 646 509.0 599.5Q535 553 535 494Q535 425 499.5 372.5Q464 320 391 299L543 0H443L302 287H297H166V0ZM166 364H294Q374 364 411.5 400.5Q449 437 449 494Q449 554 412.5 589.0Q376 624 293 624H166Z"/><path transform="translate(264.00,130.00) scale(0.01500,-0.01500)" d="M250 0 27 700H117L300 109L483 700H574L350 0Z"/><path transform="translate(276.00,130.00) scale(0.01500,-0.01500)" d="M33 0 252 700H349L567 0H475L424 174H176L125 0ZM298 582 197 244H403L302 582Z"/><path transform="translate(288.00,130.00) scale(0.01500,-0.01500)" d="M258 0V624H70V700H530V624H342V0Z"/><path transform="translate(300.00,130.00) scale(0.01500,-0.01500)" d="M99 0V73H258V627H99V700H501V627H342V73H501V0Z"/><path transform="translate(312.00,130.00) scale(0.01500,-0.01500)" d="M300 -12Q215 -12 154.0 33.0Q93 78 60.5 159.5Q28 241 28 350Q28 459 60.5 540.5Q93 622 154.0 667.0Q215 712 300 712Q385 712 446.0 667.0Q507 622 539.5 540.5Q572 459 572 350Q572 241 539.5 159.5Q507 78 446.0 33.0Q385 -12 300 -12ZM300 67Q383 67 434.5 141.0Q486 215 486 350Q486 485 434.5 559.0Q383 633 300 633Q216 633 165.0 559.0Q114 485 114 350Q114 215 165.0 141.0Q216 67 300 67Z"/><path transform="translate(324.00,130.00) scale(0.01500,-0.01500)" d="M57 0V700H143L461 147V700H544V0H457L139 553V0Z"/><path transform="translate(348.00,130.00) scale(0.01500,-0.01500)" d="M50 0V700H140L300 367L460 700H550V0H468V538L332 255H268L132 537V0Z"/><path transform="translate(360.00,130.00) scale(0.01500,-0.01500)" d="M300 -12Q215 -12 154.0 33.0Q93 78 60.5 159.5Q28 241 28 350Q28 459 60.5 540.5Q93 622 154.0 667.0Q215 712 300 712Q385 712 446.0 667.0Q507 622 539.5 540.5Q572 459 572 350Q572 241 539.5 159.5Q507 78 446.0 33.0Q385 -12 300 -12ZM300 67Q383 67 434.5 141.0Q486 215 486 350Q486 485 434.5 559.0Q383 633 300 633Q216 633 165.0 559.0Q114 485 114 350Q114 215 165.0 141.0Q216 67 300 67Z"/><path transform="translate(372.00,130.00) scale(0.01500,-0.01500)" d="M66 0V700H213Q385 700 467.5 606.0Q550 512 550 350Q550 188 467.5 94.0Q385 0 213 0ZM150 77H211Q303 77 358.5 111.0Q414 145 439.0 206.0Q464 267 464 350Q464 433 439.0 494.0Q414 555 358.5 589.0Q303 623 211 623H150Z"/><path transform="translate(384.00,130.00) scale(0.01500,-0.01500)" d="M86 0V700H523V624H170V391H493V315H170V76H523V0Z"/><path transform="translate(396.00,130.00) scale(0.01500,-0.01500)" d="M87 0V700H171V76H526V0Z"/><path transform="translate(408.00,130.00) scale(0.01500,-0.01500)" d="M99 0V73H258V627H99V700H501V627H342V73H501V0Z"/><path transform="translate(420.00,130.00) scale(0.01500,-0.01500)" d="M57 0V700H143L461 147V700H544V0H457L139 553V0Z"/><path transform="translate(432.00,130.00) scale(0.01500,-0.01500)" d="M293 -12Q219 -12 161.0 31.5Q103 75 70.5 156.0Q38 237 38 350Q38 462 71.0 543.0Q104 624 164.5 668.0Q225 712 308 712Q407 712 469.5 654.0Q532 596 544 498H451Q441 558 404.5 595.5Q368 633 308 633Q222 633 173.0 558.0Q124 483 124 350Q124 215 173.0 141.0Q222 67 300 67Q356 67 392.0 100.5Q428 134 446.5 186.5Q465 239 467 295H311V367H553V0H476L469 106H465Q444 52 403.5 20.0Q363 -12 293 -12Z"/><path transform="translate(456.00,130.00) scale(0.01500,-0.01500)" d="M300 278Q269 278 247.0 299.0Q225 320 225 351Q225 381 247.0 402.0Q269 423 300 423Q331 423 353.0 402.0Q375 381 375 351Q375 320 353.0 299.0Q331 278 300 278Z"/><path transform="translate(480.00,130.00) scale(0.01500,-0.01500)" d="M74 0V700H307Q387 700 438.0 671.0Q489 642 513.0 594.0Q537 546 537 488Q537 430 513.0 382.0Q489 334 438.0 305.0Q387 276 307 276H158V0ZM158 353H305Q379 353 415.0 390.5Q451 428 451 488Q451 548 415.0 586.0Q379 624 305 624H158Z"/><path transform="translate(492.00,130.00) scale(0.01500,-0.01500)" d="M33 0 252 700H349L567 0H475L424 174H176L125 0ZM298 582 197 244H403L302 582Z"/><path transform="translate(504.00,130.00) scale(0.01500,-0.01500)" d="M258 0V275L31 700H126L300 360L474 700H569L342 275V0Z"/><path transform="translate(516.00,130.00) scale(0.01500,-0.01500)" d="M135 314V386H465V314Z"/><path transform="translate(528.00,130.00) scale(0.01500,-0.01500)" d="M86 0V700H523V624H170V391H493V315H170V76H523V0Z"/><path transform="translate(540.00,130.00) scale(0.01500,-0.01500)" d="M300 -12Q215 -12 154.0 33.0Q93 78 60.5 159.5Q28 241 28 350Q28 459 60.5 540.5Q93 622 154.0 667.0Q215 712 300 712Q385 712 446.0 667.0Q507 622 539.5 540.5Q572 459 572 350Q572 225 529.0 136.5Q486 48 409 11L559 -149H449L321 -11Q310 -12 300 -12ZM300 67Q383 67 434.5 141.0Q486 215 486 350Q486 485 434.5 559.0Q383 633 300 633Q216 633 165.0 559.0Q114 485 114 350Q114 215 165.0 141.0Q216 67 300 67Z"/><path transform="translate(552.00,130.00) scale(0.01500,-0.01500)" d="M299 -12Q229 -12 174.5 17.0Q120 46 88.5 105.5Q57 165 57 255V700H141V252Q141 162 185.0 113.0Q229 64 301 64Q373 64 416.0 113.0Q459 162 459 252V700H543V255Q543 165 511.0 105.5Q479 46 424.0 17.0Q369 -12 299 -12Z"/><path transform="translate(564.00,130.00) scale(0.01500,-0.01500)" d="M99 0V73H258V627H99V700H501V627H342V73H501V0Z"/><path transform="translate(576.00,130.00) scale(0.01500,-0.01500)" d="M258 0V624H70V700H530V624H342V0Z"/><path transform="translate(588.00,130.00) scale(0.01500,-0.01500)" d="M258 0V275L31 700H126L300 360L474 700H569L342 275V0Z"/><path transform="translate(612.00,130.00) scale(0.01500,-0.01500)" d="M33 0 252 700H349L567 0H475L424 174H176L125 0ZM298 582 197 244H403L302 582Z"/><path transform="translate(624.00,130.00) scale(0.01500,-0.01500)" d="M57 0V700H143L461 147V700H544V0H457L139 553V0Z"/><path transform="translate(636.00,130.00) scale(0.01500,-0.01500)" d="M33 0 252 700H349L567 0H475L424 174H176L125 0ZM298 582 197 244H403L302 582Z"/><path transform="translate(648.00,130.00) scale(0.01500,-0.01500)" d="M87 0V700H171V76H526V0Z"/><path transform="translate(660.00,130.00) scale(0.01500,-0.01500)" d="M258 0V275L31 700H126L300 360L474 700H569L342 275V0Z"/><path transform="translate(672.00,130.00) scale(0.01500,-0.01500)" d="M307 -12Q233 -12 178.5 16.0Q124 44 94.5 94.0Q65 144 64 211H152Q153 151 192.5 107.5Q232 64 307 64Q376 64 413.5 97.5Q451 131 451 178Q451 217 433.0 243.5Q415 270 374.5 290.5Q334 311 266 333Q170 362 126.0 412.0Q82 462 82 536Q82 586 108.0 626.0Q134 666 183.0 689.0Q232 712 302 712Q368 712 417.5 687.5Q467 663 494.5 619.0Q522 575 522 518H434Q434 546 419.0 573.0Q404 600 374.0 618.0Q344 636 298 636Q243 636 206.0 609.5Q169 583 169 537Q169 502 185.5 478.0Q202 454 240.0 434.5Q278 415 343 393Q404 373 447.5 346.5Q491 320 514.5 281.0Q538 242 538 184Q538 127 509.0 83.0Q480 39 428.0 13.5Q376 -12 307 -12Z"/><path transform="translate(684.00,130.00) scale(0.01500,-0.01500)" d="M99 0V73H258V627H99V700H501V627H342V73H501V0Z"/><path transform="translate(696.00,130.00) scale(0.01500,-0.01500)" d="M307 -12Q233 -12 178.5 16.0Q124 44 94.5 94.0Q65 144 64 211H152Q153 151 192.5 107.5Q232 64 307 64Q376 64 413.5 97.5Q451 131 451 178Q451 217 433.0 243.5Q415 270 374.5 290.5Q334 311 266 333Q170 362 126.0 412.0Q82 462 82 536Q82 586 108.0 626.0Q134 666 183.0 689.0Q232 712 302 712Q368 712 417.5 687.5Q467 663 494.5 619.0Q522 575 522 518H434Q434 546 419.0 573.0Q404 600 374.0 618.0Q344 636 298 636Q243 636 206.0 609.5Q169 583 169 537Q169 502 185.5 478.0Q202 454 240.0 434.5Q278 415 343 393Q404 373 447.5 346.5Q491 320 514.5 281.0Q538 242 538 184Q538 127 509.0 83.0Q480 39 428.0 13.5Q376 -12 307 -12Z"/></g><g fill="#ffffff"><path transform="translate(70.00,210.00) scale(0.07000,-0.07000)" d="M284 -3 70 593Q63 613 51.5 624.5Q40 636 20 642L-4 650V660H284V650L253 641Q230 635 227.5 620.0Q225 605 232 583L380 144L529 584Q537 607 536.5 622.0Q536 637 513 643L487 650V660H627V650L600 642Q581 637 573.0 624.5Q565 612 558 592L358 -3Z"/><path transform="translate(114.24,210.00) scale(0.07000,-0.07000)" d="M273 -15Q197 -15 141.0 16.5Q85 48 54.5 106.0Q24 164 24 242Q24 320 56.5 377.0Q89 434 145.5 465.0Q202 496 273 496Q344 496 400.0 465.5Q456 435 488.5 378.0Q521 321 521 242Q521 163 490.5 105.5Q460 48 404.5 16.5Q349 -15 273 -15ZM273 5Q308 5 329.0 25.0Q350 45 359.5 96.0Q369 147 369 240Q369 334 359.5 385.0Q350 436 329.0 456.0Q308 476 273 476Q238 476 216.5 456.0Q195 436 185.5 385.0Q176 334 176 240Q176 147 185.5 96.0Q195 45 216.5 25.0Q238 5 273 5Z"/><path transform="translate(152.39,210.00) scale(0.07000,-0.07000)" d="M23 0V10L35 14Q71 26 71 64V599Q71 619 63.0 629.5Q55 640 35 645L22 648V658L205 701L217 692L213 552V210Q213 173 213.5 136.5Q214 100 214 64Q214 44 222.0 31.5Q230 19 249 13L262 10V0Z"/><path transform="translate(172.41,210.00) scale(0.07000,-0.07000)" d="M201 -15Q162 -15 129.5 0.0Q97 15 78.5 48.5Q60 82 61 137L64 394Q64 417 56.0 427.0Q48 437 31 441L19 445V455L198 490L208 480L203 338V97Q203 65 221.5 50.0Q240 35 268 35Q296 35 318.0 43.0Q340 51 362 67L366 393Q366 416 359.0 425.5Q352 435 333 439L323 442V452L498 490L508 480L505 338V67Q505 45 511.0 33.0Q517 21 537 13L547 10V0L372 -10L363 49Q330 22 291.5 3.5Q253 -15 201 -15Z"/><path transform="translate(212.10,210.00) scale(0.07000,-0.07000)" d="M20 0V10L34 14Q69 24 69 63V376Q69 398 62.0 408.5Q55 419 35 423L20 427V437L191 495L201 485L209 425Q244 456 288.0 476.0Q332 496 375 496Q441 496 476.5 460.0Q512 424 512 350V62Q512 23 550 13L559 10V0H323V10L336 14Q371 25 371 63V382Q371 446 307 446Q263 446 211 402V62Q211 23 246 13L255 10V0Z"/><path transform="translate(252.56,210.00) scale(0.07000,-0.07000)" d="M210 -15Q146 -15 110.5 17.0Q75 49 75 119V461H6V471L30 475Q61 482 83.5 495.0Q106 508 128 530L210 621H220L217 481H329V461H216V101Q216 66 231.5 48.0Q247 30 271 30Q292 30 308.0 40.5Q324 51 340 69L350 59Q330 25 295.0 5.0Q260 -15 210 -15Z"/><path transform="translate(277.83,210.00) scale(0.07000,-0.07000)" d="M166 -15Q108 -15 68.5 18.0Q29 51 29 113Q29 160 77.0 199.5Q125 239 228 259Q244 262 264.0 265.5Q284 269 306 273V352Q306 420 289.5 447.5Q273 475 238 475Q214 475 200.0 459.5Q186 444 182 406L180 395Q178 352 159.0 332.0Q140 312 112 312Q86 312 69.0 328.0Q52 344 52 371Q52 412 80.5 440.0Q109 468 156.0 482.0Q203 496 258 496Q347 496 395.5 452.5Q444 409 444 311V90Q444 45 486 45H508L517 37Q498 13 475.5 0.0Q453 -13 412 -13Q368 -13 342.5 7.5Q317 28 309 62Q279 30 247.5 7.5Q216 -15 166 -15ZM227 46Q247 46 264.5 55.5Q282 65 306 85V253Q296 251 286.0 249.0Q276 247 263 245Q217 233 189.5 204.5Q162 176 162 128Q162 87 181.0 66.5Q200 46 227 46Z"/><path transform="translate(314.09,210.00) scale(0.07000,-0.07000)" d="M20 0V10L35 14Q55 20 62.5 32.0Q70 44 70 63V376Q70 398 62.5 408.5Q55 419 35 423L20 427V437L192 495L202 485L211 399V391Q225 419 247.5 442.5Q270 466 297.5 481.0Q325 496 352 496Q390 496 410.0 475.0Q430 454 430 422Q430 388 410.5 369.5Q391 351 364 351Q322 351 290 393L288 395Q278 409 265.0 410.5Q252 412 241 398Q231 389 224.5 376.5Q218 364 212 348V69Q212 29 247 19L279 10V0Z"/><path transform="translate(344.96,210.00) scale(0.07000,-0.07000)" d="M112 -240Q72 -240 48.5 -220.0Q25 -200 25 -169Q25 -141 45.0 -124.0Q65 -107 90 -107Q115 -107 132.0 -117.5Q149 -128 162 -148L169 -156Q191 -186 213 -155Q222 -140 233.5 -115.5Q245 -91 260 -50L66 414Q59 433 51.0 444.5Q43 456 25 464L7 471V481H256V472L236 464Q214 457 213.5 441.5Q213 426 221 403L325 133L424 406Q432 429 430.0 444.5Q428 460 405 466L384 471V481H523V471L501 464Q478 457 469.0 444.0Q460 431 452 408L291 -31Q252 -136 213.0 -188.0Q174 -240 112 -240Z"/><path transform="translate(397.74,210.00) scale(0.07000,-0.07000)" d="M236 -3 59 592Q52 615 44.0 625.5Q36 636 16 645L4 650V660H269V650L248 642Q225 633 217.0 620.0Q209 607 216 584L325 168L443 517L420 588Q413 609 407.0 620.0Q401 631 387 638L365 650V660H616V650L585 638Q565 631 562.5 617.5Q560 604 567 583L694 158L814 575Q821 599 819.0 617.0Q817 635 794 643L773 650V660H912V650L886 640Q866 633 858.0 618.0Q850 603 844 581L678 -3H609L459 467L305 -3Z"/><path transform="translate(462.21,210.00) scale(0.07000,-0.07000)" d="M273 -15Q197 -15 141.0 16.5Q85 48 54.5 106.0Q24 164 24 242Q24 320 56.5 377.0Q89 434 145.5 465.0Q202 496 273 496Q344 496 400.0 465.5Q456 435 488.5 378.0Q521 321 521 242Q521 163 490.5 105.5Q460 48 404.5 16.5Q349 -15 273 -15ZM273 5Q308 5 329.0 25.0Q350 45 359.5 96.0Q369 147 369 240Q369 334 359.5 385.0Q350 436 329.0 456.0Q308 476 273 476Q238 476 216.5 456.0Q195 436 185.5 385.0Q176 334 176 240Q176 147 185.5 96.0Q195 45 216.5 25.0Q238 5 273 5Z"/><path transform="translate(500.36,210.00) scale(0.07000,-0.07000)" d="M20 0V10L35 14Q55 20 62.5 32.0Q70 44 70 63V376Q70 398 62.5 408.5Q55 419 35 423L20 427V437L192 495L202 485L211 399V391Q225 419 247.5 442.5Q270 466 297.5 481.0Q325 496 352 496Q390 496 410.0 475.0Q430 454 430 422Q430 388 410.5 369.5Q391 351 364 351Q322 351 290 393L288 395Q278 409 265.0 410.5Q252 412 241 398Q231 389 224.5 376.5Q218 364 212 348V69Q212 29 247 19L279 10V0Z"/><path transform="translate(531.23,210.00) scale(0.07000,-0.07000)" d="M22 0V10L37 15Q71 26 71 64V599Q71 619 63.0 629.0Q55 639 35 645L22 648V658L205 701L217 692L214 552V64Q214 24 247 14L261 10V0ZM393 0 215 250 400 421Q413 433 415.5 446.5Q418 460 398 466L381 471V481H530V471L500 463Q478 456 464.5 446.5Q451 437 432 420L320 315L499 66Q515 44 529.0 32.0Q543 20 565 12L569 10V0Z"/><path transform="translate(571.97,210.00) scale(0.07000,-0.07000)" d="M22 0V10L35 13Q54 18 65.0 30.5Q76 43 76 63Q76 100 76.5 136.5Q77 173 77 210V461H21V472L43 476Q63 478 72.0 490.0Q81 502 85 523Q95 562 114.5 591.5Q134 621 159 646Q197 682 239.5 696.5Q282 711 323 711Q363 711 396.0 694.5Q429 678 429 640Q429 613 413.0 597.5Q397 582 368 582Q344 582 324.0 595.0Q304 608 285 641L271 658Q260 672 249.0 671.5Q238 671 233 655Q226 620 222.5 573.0Q219 526 219 481H331V461H219V65Q219 27 259 16L284 10V0Z"/><path transform="translate(595.98,210.00) scale(0.07000,-0.07000)" d="M273 -15Q197 -15 141.0 16.5Q85 48 54.5 106.0Q24 164 24 242Q24 320 56.5 377.0Q89 434 145.5 465.0Q202 496 273 496Q344 496 400.0 465.5Q456 435 488.5 378.0Q521 321 521 242Q521 163 490.5 105.5Q460 48 404.5 16.5Q349 -15 273 -15ZM273 5Q308 5 329.0 25.0Q350 45 359.5 96.0Q369 147 369 240Q369 334 359.5 385.0Q350 436 329.0 456.0Q308 476 273 476Q238 476 216.5 456.0Q195 436 185.5 385.0Q176 334 176 240Q176 147 185.5 96.0Q195 45 216.5 25.0Q238 5 273 5Z"/><path transform="translate(634.13,210.00) scale(0.07000,-0.07000)" d="M20 0V10L35 14Q55 20 62.5 32.0Q70 44 70 63V376Q70 398 62.5 408.5Q55 419 35 423L20 427V437L192 495L202 485L211 399V391Q225 419 247.5 442.5Q270 466 297.5 481.0Q325 496 352 496Q390 496 410.0 475.0Q430 454 430 422Q430 388 410.5 369.5Q391 351 364 351Q322 351 290 393L288 395Q278 409 265.0 410.5Q252 412 241 398Q231 389 224.5 376.5Q218 364 212 348V69Q212 29 247 19L279 10V0Z"/><path transform="translate(665.00,210.00) scale(0.07000,-0.07000)" d="M268 -15Q200 -15 144.5 14.5Q89 44 56.5 100.5Q24 157 24 239Q24 320 59.5 377.5Q95 435 154.5 465.5Q214 496 285 496Q343 496 383.0 477.0Q423 458 444.0 427.5Q465 397 465 364Q465 336 448.0 320.5Q431 305 404 305Q375 305 357.0 326.0Q339 347 336 381Q335 403 337.0 418.5Q339 434 337 450Q333 467 324.5 472.5Q316 478 301 478Q240 478 206.5 425.0Q173 372 173 256Q173 155 210.5 101.5Q248 48 326 48Q373 48 402.0 65.0Q431 82 458 116L468 108Q443 49 391.0 17.0Q339 -15 268 -15Z"/><path transform="translate(699.58,210.00) scale(0.07000,-0.07000)" d="M271 496Q336 496 382.0 469.5Q428 443 452.5 397.5Q477 352 477 294Q477 283 476.0 271.5Q475 260 472 251H174Q175 143 212.5 95.5Q250 48 324 48Q374 48 405.0 64.0Q436 80 463 111L473 102Q442 47 390.5 16.0Q339 -15 267 -15Q196 -15 141.0 15.5Q86 46 55.0 103.0Q24 160 24 239Q24 321 60.0 378.5Q96 436 152.5 466.0Q209 496 271 496ZM268 476Q239 476 218.5 458.5Q198 441 186.5 396.5Q175 352 174 271H345Q355 380 337.0 428.0Q319 476 268 476Z"/></g><g fill="#ffffff"><path transform="translate(70.00,284.00) scale(0.07000,-0.07000)" d="M22 0V10L42 17Q62 23 68.5 35.0Q75 47 75 67V591Q75 611 68.0 623.0Q61 635 41 642L22 650V660H265Q414 660 480.5 605.5Q547 551 547 462Q547 405 519.5 357.5Q492 310 429.0 282.0Q366 254 259 254H225V70Q225 31 264 19L294 10V0ZM225 274H263Q312 274 343.0 290.0Q374 306 389.0 346.0Q404 386 404 457Q404 529 387.5 569.0Q371 609 339.0 624.5Q307 640 259 640H225Z"/><path transform="translate(109.55,284.00) scale(0.07000,-0.07000)" d="M20 0V10L35 14Q55 20 62.5 32.0Q70 44 70 63V376Q70 398 62.5 408.5Q55 419 35 423L20 427V437L192 495L202 485L211 399V391Q225 419 247.5 442.5Q270 466 297.5 481.0Q325 496 352 496Q390 496 410.0 475.0Q430 454 430 422Q430 388 410.5 369.5Q391 351 364 351Q322 351 290 393L288 395Q278 409 265.0 410.5Q252 412 241 398Q231 389 224.5 376.5Q218 364 212 348V69Q212 29 247 19L279 10V0Z"/><path transform="translate(140.42,284.00) scale(0.07000,-0.07000)" d="M271 496Q336 496 382.0 469.5Q428 443 452.5 397.5Q477 352 477 294Q477 283 476.0 271.5Q475 260 472 251H174Q175 143 212.5 95.5Q250 48 324 48Q374 48 405.0 64.0Q436 80 463 111L473 102Q442 47 390.5 16.0Q339 -15 267 -15Q196 -15 141.0 15.5Q86 46 55.0 103.0Q24 160 24 239Q24 321 60.0 378.5Q96 436 152.5 466.0Q209 496 271 496ZM268 476Q239 476 218.5 458.5Q198 441 186.5 396.5Q175 352 174 271H345Q355 380 337.0 428.0Q319 476 268 476Z"/><path transform="translate(175.91,284.00) scale(0.07000,-0.07000)" d="M193 -15Q144 -15 105.0 -3.5Q66 8 33 25L34 144H44L78 84Q100 44 126.5 24.5Q153 5 194 5Q242 5 271.5 26.5Q301 48 301 84Q301 117 280.0 138.0Q259 159 202 176L160 189Q99 207 64.0 245.0Q29 283 29 338Q29 404 81.0 450.0Q133 496 230 496Q269 496 303.5 487.5Q338 479 370 462L364 354H354L319 416Q300 449 281.5 462.5Q263 476 226 476Q192 476 162.0 457.0Q132 438 132 403Q132 369 157.5 349.0Q183 329 233 312L278 299Q350 277 381.0 238.5Q412 200 412 146Q412 73 354.5 29.0Q297 -15 193 -15Z"/><path transform="translate(206.43,284.00) scale(0.07000,-0.07000)" d="M271 496Q336 496 382.0 469.5Q428 443 452.5 397.5Q477 352 477 294Q477 283 476.0 271.5Q475 260 472 251H174Q175 143 212.5 95.5Q250 48 324 48Q374 48 405.0 64.0Q436 80 463 111L473 102Q442 47 390.5 16.0Q339 -15 267 -15Q196 -15 141.0 15.5Q86 46 55.0 103.0Q24 160 24 239Q24 321 60.0 378.5Q96 436 152.5 466.0Q209 496 271 496ZM268 476Q239 476 218.5 458.5Q198 441 186.5 396.5Q175 352 174 271H345Q355 380 337.0 428.0Q319 476 268 476Z"/><path transform="translate(241.92,284.00) scale(0.07000,-0.07000)" d="M20 0V10L35 14Q55 20 62.5 32.0Q70 44 70 63V376Q70 398 62.5 408.5Q55 419 35 423L20 427V437L192 495L202 485L211 399V391Q225 419 247.5 442.5Q270 466 297.5 481.0Q325 496 352 496Q390 496 410.0 475.0Q430 454 430 422Q430 388 410.5 369.5Q391 351 364 351Q322 351 290 393L288 395Q278 409 265.0 410.5Q252 412 241 398Q231 389 224.5 376.5Q218 364 212 348V69Q212 29 247 19L279 10V0Z"/><path transform="translate(272.79,284.00) scale(0.07000,-0.07000)" d="M244 -3 67 422Q53 456 19 467L5 471V481H264V471L246 467Q207 457 222 415L327 136L425 413Q433 433 429.0 446.0Q425 459 405 465L380 471V481H525V471L496 464Q477 459 466.5 449.0Q456 439 449 419L302 -3Z"/><path transform="translate(309.89,284.00) scale(0.07000,-0.07000)" d="M166 -15Q108 -15 68.5 18.0Q29 51 29 113Q29 160 77.0 199.5Q125 239 228 259Q244 262 264.0 265.5Q284 269 306 273V352Q306 420 289.5 447.5Q273 475 238 475Q214 475 200.0 459.5Q186 444 182 406L180 395Q178 352 159.0 332.0Q140 312 112 312Q86 312 69.0 328.0Q52 344 52 371Q52 412 80.5 440.0Q109 468 156.0 482.0Q203 496 258 496Q347 496 395.5 452.5Q444 409 444 311V90Q444 45 486 45H508L517 37Q498 13 475.5 0.0Q453 -13 412 -13Q368 -13 342.5 7.5Q317 28 309 62Q279 30 247.5 7.5Q216 -15 166 -15ZM227 46Q247 46 264.5 55.5Q282 65 306 85V253Q296 251 286.0 249.0Q276 247 263 245Q217 233 189.5 204.5Q162 176 162 128Q162 87 181.0 66.5Q200 46 227 46Z"/><path transform="translate(346.15,284.00) scale(0.07000,-0.07000)" d="M210 -15Q146 -15 110.5 17.0Q75 49 75 119V461H6V471L30 475Q61 482 83.5 495.0Q106 508 128 530L210 621H220L217 481H329V461H216V101Q216 66 231.5 48.0Q247 30 271 30Q292 30 308.0 40.5Q324 51 340 69L350 59Q330 25 295.0 5.0Q260 -15 210 -15Z"/><path transform="translate(371.42,284.00) scale(0.07000,-0.07000)" d="M140 548Q106 548 82.5 569.5Q59 591 59 624Q59 658 82.5 679.0Q106 700 140 700Q174 700 197.0 679.0Q220 658 220 624Q220 591 197.0 569.5Q174 548 140 548ZM22 0V10L36 14Q56 20 63.5 32.0Q71 44 71 64V377Q71 398 63.5 408.5Q56 419 36 423L22 426V436L205 495L215 485L212 343V63Q212 43 219.5 31.0Q227 19 246 13L256 10V0Z"/><path transform="translate(391.02,284.00) scale(0.07000,-0.07000)" d="M273 -15Q197 -15 141.0 16.5Q85 48 54.5 106.0Q24 164 24 242Q24 320 56.5 377.0Q89 434 145.5 465.0Q202 496 273 496Q344 496 400.0 465.5Q456 435 488.5 378.0Q521 321 521 242Q521 163 490.5 105.5Q460 48 404.5 16.5Q349 -15 273 -15ZM273 5Q308 5 329.0 25.0Q350 45 359.5 96.0Q369 147 369 240Q369 334 359.5 385.0Q350 436 329.0 456.0Q308 476 273 476Q238 476 216.5 456.0Q195 436 185.5 385.0Q176 334 176 240Q176 147 185.5 96.0Q195 45 216.5 25.0Q238 5 273 5Z"/><path transform="translate(429.17,284.00) scale(0.07000,-0.07000)" d="M20 0V10L34 14Q69 24 69 63V376Q69 398 62.0 408.5Q55 419 35 423L20 427V437L191 495L201 485L209 425Q244 456 288.0 476.0Q332 496 375 496Q441 496 476.5 460.0Q512 424 512 350V62Q512 23 550 13L559 10V0H323V10L336 14Q371 25 371 63V382Q371 446 307 446Q263 446 211 402V62Q211 23 246 13L255 10V0Z"/><path transform="translate(484.89,284.00) scale(0.07000,-0.07000)" d="M366 -18Q269 -18 190.5 21.5Q112 61 66.0 139.0Q20 217 20 330Q20 416 48.0 481.0Q76 546 124.5 590.0Q173 634 236.5 656.0Q300 678 371 678Q428 678 476.0 665.0Q524 652 566 629L570 506H560L510 586Q500 605 488.0 620.5Q476 636 458 644Q443 651 428.5 654.5Q414 658 392 658Q334 658 286.5 627.0Q239 596 210.5 524.5Q182 453 182 329Q182 206 209.0 134.5Q236 63 282.5 32.5Q329 2 387 2Q419 2 438.0 6.5Q457 11 476 20Q495 28 505.0 43.5Q515 59 523 77L567 175H577L574 32Q532 10 480.0 -4.0Q428 -18 366 -18Z"/><path transform="translate(527.10,284.00) scale(0.07000,-0.07000)" d="M166 -15Q108 -15 68.5 18.0Q29 51 29 113Q29 160 77.0 199.5Q125 239 228 259Q244 262 264.0 265.5Q284 269 306 273V352Q306 420 289.5 447.5Q273 475 238 475Q214 475 200.0 459.5Q186 444 182 406L180 395Q178 352 159.0 332.0Q140 312 112 312Q86 312 69.0 328.0Q52 344 52 371Q52 412 80.5 440.0Q109 468 156.0 482.0Q203 496 258 496Q347 496 395.5 452.5Q444 409 444 311V90Q444 45 486 45H508L517 37Q498 13 475.5 0.0Q453 -13 412 -13Q368 -13 342.5 7.5Q317 28 309 62Q279 30 247.5 7.5Q216 -15 166 -15ZM227 46Q247 46 264.5 55.5Q282 65 306 85V253Q296 251 286.0 249.0Q276 247 263 245Q217 233 189.5 204.5Q162 176 162 128Q162 87 181.0 66.5Q200 46 227 46Z"/><path transform="translate(563.36,284.00) scale(0.07000,-0.07000)" d="M23 0V10L35 14Q71 26 71 64V599Q71 619 63.0 629.5Q55 640 35 645L22 648V658L205 701L217 692L213 552V210Q213 173 213.5 136.5Q214 100 214 64Q214 44 222.0 31.5Q230 19 249 13L262 10V0Z"/><path transform="translate(583.38,284.00) scale(0.07000,-0.07000)" d="M268 -15Q200 -15 144.5 14.5Q89 44 56.5 100.5Q24 157 24 239Q24 320 59.5 377.5Q95 435 154.5 465.5Q214 496 285 496Q343 496 383.0 477.0Q423 458 444.0 427.5Q465 397 465 364Q465 336 448.0 320.5Q431 305 404 305Q375 305 357.0 326.0Q339 347 336 381Q335 403 337.0 418.5Q339 434 337 450Q333 467 324.5 472.5Q316 478 301 478Q240 478 206.5 425.0Q173 372 173 256Q173 155 210.5 101.5Q248 48 326 48Q373 48 402.0 65.0Q431 82 458 116L468 108Q443 49 391.0 17.0Q339 -15 268 -15Z"/><path transform="translate(617.96,284.00) scale(0.07000,-0.07000)" d="M201 -15Q162 -15 129.5 0.0Q97 15 78.5 48.5Q60 82 61 137L64 394Q64 417 56.0 427.0Q48 437 31 441L19 445V455L198 490L208 480L203 338V97Q203 65 221.5 50.0Q240 35 268 35Q296 35 318.0 43.0Q340 51 362 67L366 393Q366 416 359.0 425.5Q352 435 333 439L323 442V452L498 490L508 480L505 338V67Q505 45 511.0 33.0Q517 21 537 13L547 10V0L372 -10L363 49Q330 22 291.5 3.5Q253 -15 201 -15Z"/><path transform="translate(657.65,284.00) scale(0.07000,-0.07000)" d="M23 0V10L35 14Q71 26 71 64V599Q71 619 63.0 629.5Q55 640 35 645L22 648V658L205 701L217 692L213 552V210Q213 173 213.5 136.5Q214 100 214 64Q214 44 222.0 31.5Q230 19 249 13L262 10V0Z"/><path transform="translate(677.67,284.00) scale(0.07000,-0.07000)" d="M166 -15Q108 -15 68.5 18.0Q29 51 29 113Q29 160 77.0 199.5Q125 239 228 259Q244 262 264.0 265.5Q284 269 306 273V352Q306 420 289.5 447.5Q273 475 238 475Q214 475 200.0 459.5Q186 444 182 406L180 395Q178 352 159.0 332.0Q140 312 112 312Q86 312 69.0 328.0Q52 344 52 371Q52 412 80.5 440.0Q109 468 156.0 482.0Q203 496 258 496Q347 496 395.5 452.5Q444 409 444 311V90Q444 45 486 45H508L517 37Q498 13 475.5 0.0Q453 -13 412 -13Q368 -13 342.5 7.5Q317 28 309 62Q279 30 247.5 7.5Q216 -15 166 -15ZM227 46Q247 46 264.5 55.5Q282 65 306 85V253Q296 251 286.0 249.0Q276 247 263 245Q217 233 189.5 204.5Q162 176 162 128Q162 87 181.0 66.5Q200 46 227 46Z"/><path transform="translate(713.93,284.00) scale(0.07000,-0.07000)" d="M210 -15Q146 -15 110.5 17.0Q75 49 75 119V461H6V471L30 475Q61 482 83.5 495.0Q106 508 128 530L210 621H220L217 481H329V461H216V101Q216 66 231.5 48.0Q247 30 271 30Q292 30 308.0 40.5Q324 51 340 69L350 59Q330 25 295.0 5.0Q260 -15 210 -15Z"/><path transform="translate(739.20,284.00) scale(0.07000,-0.07000)" d="M273 -15Q197 -15 141.0 16.5Q85 48 54.5 106.0Q24 164 24 242Q24 320 56.5 377.0Q89 434 145.5 465.0Q202 496 273 496Q344 496 400.0 465.5Q456 435 488.5 378.0Q521 321 521 242Q521 163 490.5 105.5Q460 48 404.5 16.5Q349 -15 273 -15ZM273 5Q308 5 329.0 25.0Q350 45 359.5 96.0Q369 147 369 240Q369 334 359.5 385.0Q350 436 329.0 456.0Q308 476 273 476Q238 476 216.5 456.0Q195 436 185.5 385.0Q176 334 176 240Q176 147 185.5 96.0Q195 45 216.5 25.0Q238 5 273 5Z"/><path transform="translate(777.35,284.00) scale(0.07000,-0.07000)" d="M20 0V10L35 14Q55 20 62.5 32.0Q70 44 70 63V376Q70 398 62.5 408.5Q55 419 35 423L20 427V437L192 495L202 485L211 399V391Q225 419 247.5 442.5Q270 466 297.5 481.0Q325 496 352 496Q390 496 410.0 475.0Q430 454 430 422Q430 388 410.5 369.5Q391 351 364 351Q322 351 290 393L288 395Q278 409 265.0 410.5Q252 412 241 398Q231 389 224.5 376.5Q218 364 212 348V69Q212 29 247 19L279 10V0Z"/></g><g fill="#c9c4bb"><path transform="translate(72.00,330.00) scale(0.02100,-0.02100)" d="M77 0V700H175L413 207L649 700H748V0H664V549L444 92H381L161 545V0Z"/><path transform="translate(89.33,330.00) scale(0.02100,-0.02100)" d="M297 -12Q224 -12 168.0 22.0Q112 56 81.0 118.0Q50 180 50 263Q50 347 81.5 408.5Q113 470 169.5 504.0Q226 538 299 538Q373 538 428.5 504.0Q484 470 515.0 408.5Q546 347 546 263Q546 180 514.5 118.0Q483 56 427.0 22.0Q371 -12 297 -12ZM297 60Q343 60 380.0 82.5Q417 105 438.5 150.5Q460 196 460 263Q460 331 439.0 376.0Q418 421 381.5 443.5Q345 466 299 466Q254 466 217.0 443.5Q180 421 158.0 376.0Q136 331 136 263Q136 196 157.5 150.5Q179 105 215.5 82.5Q252 60 297 60Z"/><path transform="translate(101.86,330.00) scale(0.02100,-0.02100)" d="M288 -12Q218 -12 164.0 24.0Q110 60 80.0 122.5Q50 185 50 264Q50 344 80.0 405.5Q110 467 164.0 502.5Q218 538 289 538Q351 538 395.5 513.0Q440 488 466 443V720H550V0H474L467 84Q452 59 427.5 37.0Q403 15 368.5 1.5Q334 -12 288 -12ZM299 61Q349 61 386.0 85.5Q423 110 443.0 155.5Q463 201 463 263Q463 325 443.0 370.5Q423 416 386.0 440.5Q349 465 299 465Q252 465 215.0 440.5Q178 416 157.0 370.5Q136 325 136 263Q136 201 157.0 155.5Q178 110 215.0 85.5Q252 61 299 61Z"/><path transform="translate(114.90,330.00) scale(0.02100,-0.02100)" d="M289 -12Q219 -12 165.0 22.0Q111 56 80.5 118.0Q50 180 50 263Q50 346 80.5 408.0Q111 470 165.5 504.0Q220 538 291 538Q367 538 418.0 504.0Q469 470 495.0 413.0Q521 356 521 288Q521 278 521.0 268.0Q521 258 520 244H113V309H439Q437 386 394.5 426.5Q352 467 289 467Q247 467 211.5 446.5Q176 426 154.0 386.0Q132 346 132 286V258Q132 192 154.0 147.5Q176 103 211.5 81.0Q247 59 289 59Q345 59 377.0 80.5Q409 102 424 142H507Q495 98 465.5 63.0Q436 28 391.5 8.0Q347 -12 289 -12Z"/><path transform="translate(126.79,330.00) scale(0.02100,-0.02100)" d="M71 0V720H155V0Z"/><path transform="translate(137.18,330.00) scale(0.02100,-0.02100)" d="M224 0 24 526H113L273 81L434 526H520L321 0Z"/><path transform="translate(148.61,330.00) scale(0.02100,-0.02100)" d="M297 -12Q224 -12 168.0 22.0Q112 56 81.0 118.0Q50 180 50 263Q50 347 81.5 408.5Q113 470 169.5 504.0Q226 538 299 538Q373 538 428.5 504.0Q484 470 515.0 408.5Q546 347 546 263Q546 180 514.5 118.0Q483 56 427.0 22.0Q371 -12 297 -12ZM297 60Q343 60 380.0 82.5Q417 105 438.5 150.5Q460 196 460 263Q460 331 439.0 376.0Q418 421 381.5 443.5Q345 466 299 466Q254 466 217.0 443.5Q180 421 158.0 376.0Q136 331 136 263Q136 196 157.5 150.5Q179 105 215.5 82.5Q252 60 297 60Z"/><path transform="translate(161.15,330.00) scale(0.02100,-0.02100)" d="M71 0V720H155V0Z"/><path transform="translate(165.89,330.00) scale(0.02100,-0.02100)" d="M260 -12Q202 -12 159.0 10.0Q116 32 92.0 77.5Q68 123 68 191V526H152V200Q152 130 186.5 95.0Q221 60 279 60Q319 60 351.0 78.5Q383 97 402.5 133.0Q422 169 422 221V526H506V0H430L425 84Q404 38 360.5 13.0Q317 -12 260 -12Z"/><path transform="translate(178.01,330.00) scale(0.02100,-0.02100)" d="M71 0V526H147L151 443Q174 488 217.5 513.0Q261 538 318 538Q376 538 419.0 516.0Q462 494 486.0 449.0Q510 404 510 335V0H426V326Q426 396 391.5 431.0Q357 466 299 466Q260 466 227.0 447.5Q194 429 174.5 393.0Q155 357 155 305V0Z"/><path transform="translate(190.15,330.00) scale(0.02100,-0.02100)" d="M275 0Q230 0 197.0 14.0Q164 28 146.5 61.5Q129 95 129 152V455H37V526H129L140 657H213V526H362V455H213V152Q213 105 232.0 88.5Q251 72 299 72H360V0Z"/><path transform="translate(198.67,330.00) scale(0.02100,-0.02100)" d="M235 -12Q175 -12 135.0 10.5Q95 33 75.0 70.5Q55 108 55 151Q55 203 81.5 239.5Q108 276 156.0 295.0Q204 314 268 314H399Q399 365 387.0 399.0Q375 433 348.0 450.0Q321 467 276 467Q231 467 199.0 444.5Q167 422 159 378H73Q79 430 108.0 465.5Q137 501 181.5 519.5Q226 538 276 538Q347 538 393.0 512.5Q439 487 461.0 441.5Q483 396 483 334V0H408L403 90Q393 69 377.5 50.5Q362 32 341.0 18.0Q320 4 293.5 -4.0Q267 -12 235 -12ZM247 59Q280 59 308.0 74.0Q336 89 356.5 114.5Q377 140 388.0 172.0Q399 204 399 239V249H275Q228 249 198.5 237.0Q169 225 156.0 203.5Q143 182 143 155Q143 126 155.0 104.5Q167 83 190.5 71.0Q214 59 247 59Z"/><path transform="translate(210.24,330.00) scale(0.02100,-0.02100)" d="M71 0V526H147L153 430Q171 466 200.0 490.0Q229 514 270.5 526.0Q312 538 364 538V450H312Q282 450 254.0 442.0Q226 434 203.5 416.0Q181 398 168.0 367.0Q155 336 155 289V0Z"/><path transform="translate(218.43,330.00) scale(0.02100,-0.02100)" d="M130 -220 249 56H220L23 526H114L277 121L447 526H534L217 -220Z"/><path transform="translate(235.78,330.00) scale(0.02100,-0.02100)" d="M298 -12Q226 -12 170.0 22.5Q114 57 82.0 119.0Q50 181 50 263Q50 346 82.0 407.5Q114 469 170.0 503.5Q226 538 298 538Q388 538 448.5 490.0Q509 442 526 361H440Q429 411 389.5 438.5Q350 466 297 466Q251 466 214.5 443.0Q178 420 157.0 375.0Q136 330 136 263Q136 213 148.0 174.5Q160 136 181.5 110.5Q203 85 232.5 72.0Q262 59 297 59Q333 59 362.5 71.5Q392 84 412.5 108.0Q433 132 440 165H526Q510 86 448.5 37.0Q387 -12 298 -12Z"/><path transform="translate(247.90,330.00) scale(0.02100,-0.02100)" d="M297 -12Q224 -12 168.0 22.0Q112 56 81.0 118.0Q50 180 50 263Q50 347 81.5 408.5Q113 470 169.5 504.0Q226 538 299 538Q373 538 428.5 504.0Q484 470 515.0 408.5Q546 347 546 263Q546 180 514.5 118.0Q483 56 427.0 22.0Q371 -12 297 -12ZM297 60Q343 60 380.0 82.5Q417 105 438.5 150.5Q460 196 460 263Q460 331 439.0 376.0Q418 421 381.5 443.5Q345 466 299 466Q254 466 217.0 443.5Q180 421 158.0 376.0Q136 331 136 263Q136 196 157.5 150.5Q179 105 215.5 82.5Q252 60 297 60Z"/><path transform="translate(260.43,330.00) scale(0.02100,-0.02100)" d="M71 0V526H147L151 443Q174 488 217.5 513.0Q261 538 318 538Q376 538 419.0 516.0Q462 494 486.0 449.0Q510 404 510 335V0H426V326Q426 396 391.5 431.0Q357 466 299 466Q260 466 227.0 447.5Q194 429 174.5 393.0Q155 357 155 305V0Z"/><path transform="translate(272.57,330.00) scale(0.02100,-0.02100)" d="M275 0Q230 0 197.0 14.0Q164 28 146.5 61.5Q129 95 129 152V455H37V526H129L140 657H213V526H362V455H213V152Q213 105 232.0 88.5Q251 72 299 72H360V0Z"/><path transform="translate(281.10,330.00) scale(0.02100,-0.02100)" d="M71 0V526H147L153 430Q171 466 200.0 490.0Q229 514 270.5 526.0Q312 538 364 538V450H312Q282 450 254.0 442.0Q226 434 203.5 416.0Q181 398 168.0 367.0Q155 336 155 289V0Z"/><path transform="translate(289.29,330.00) scale(0.02100,-0.02100)" d="M79 0V526H163V0ZM121 626Q96 626 79.5 642.5Q63 659 63 684Q63 709 79.5 724.5Q96 740 121 740Q145 740 162.0 724.5Q179 709 179 684Q179 659 162.0 642.5Q145 626 121 626Z"/><path transform="translate(294.35,330.00) scale(0.02100,-0.02100)" d="M333 -12Q285 -12 250.5 2.5Q216 17 192.5 39.0Q169 61 154 82L147 0H71V720H155V443Q179 490 226.0 514.0Q273 538 331 538Q403 538 457.0 503.0Q511 468 541.0 406.5Q571 345 571 265Q571 186 541.0 123.0Q511 60 457.5 24.0Q404 -12 333 -12ZM322 61Q369 61 405.5 85.5Q442 110 463.5 155.5Q485 201 485 263Q485 325 463.5 370.5Q442 416 405.5 440.5Q369 465 322 465Q272 465 235.0 440.5Q198 416 178.0 370.5Q158 325 158 263Q158 201 178.0 155.5Q198 110 235.0 85.5Q272 61 322 61Z"/><path transform="translate(307.41,330.00) scale(0.02100,-0.02100)" d="M260 -12Q202 -12 159.0 10.0Q116 32 92.0 77.5Q68 123 68 191V526H152V200Q152 130 186.5 95.0Q221 60 279 60Q319 60 351.0 78.5Q383 97 402.5 133.0Q422 169 422 221V526H506V0H430L425 84Q404 38 360.5 13.0Q317 -12 260 -12Z"/><path transform="translate(319.53,330.00) scale(0.02100,-0.02100)" d="M275 0Q230 0 197.0 14.0Q164 28 146.5 61.5Q129 95 129 152V455H37V526H129L140 657H213V526H362V455H213V152Q213 105 232.0 88.5Q251 72 299 72H360V0Z"/><path transform="translate(328.05,330.00) scale(0.02100,-0.02100)" d="M79 0V526H163V0ZM121 626Q96 626 79.5 642.5Q63 659 63 684Q63 709 79.5 724.5Q96 740 121 740Q145 740 162.0 724.5Q179 709 179 684Q179 659 162.0 642.5Q145 626 121 626Z"/><path transform="translate(333.11,330.00) scale(0.02100,-0.02100)" d="M297 -12Q224 -12 168.0 22.0Q112 56 81.0 118.0Q50 180 50 263Q50 347 81.5 408.5Q113 470 169.5 504.0Q226 538 299 538Q373 538 428.5 504.0Q484 470 515.0 408.5Q546 347 546 263Q546 180 514.5 118.0Q483 56 427.0 22.0Q371 -12 297 -12ZM297 60Q343 60 380.0 82.5Q417 105 438.5 150.5Q460 196 460 263Q460 331 439.0 376.0Q418 421 381.5 443.5Q345 466 299 466Q254 466 217.0 443.5Q180 421 158.0 376.0Q136 331 136 263Q136 196 157.5 150.5Q179 105 215.5 82.5Q252 60 297 60Z"/><path transform="translate(345.65,330.00) scale(0.02100,-0.02100)" d="M71 0V526H147L151 443Q174 488 217.5 513.0Q261 538 318 538Q376 538 419.0 516.0Q462 494 486.0 449.0Q510 404 510 335V0H426V326Q426 396 391.5 431.0Q357 466 299 466Q260 466 227.0 447.5Q194 429 174.5 393.0Q155 357 155 305V0Z"/><path transform="translate(363.44,330.00) scale(0.02100,-0.02100)" d="M261 -12Q190 -12 143.5 9.5Q97 31 73.0 69.5Q49 108 44 159H130Q134 132 148.5 109.5Q163 87 191.0 73.0Q219 59 262 59Q296 59 320.0 69.5Q344 80 356.5 99.0Q369 118 369 143Q369 176 354.5 194.5Q340 213 312.5 222.5Q285 232 244 237Q200 243 166.0 254.0Q132 265 108.5 283.0Q85 301 73.0 328.0Q61 355 61 392Q61 435 84.0 468.0Q107 501 149.5 519.5Q192 538 250 538Q335 538 384.5 499.0Q434 460 443 388H360Q355 425 326.0 446.0Q297 467 249 467Q198 467 172.0 448.0Q146 429 146 398Q146 375 157.5 356.5Q169 338 197.0 325.5Q225 313 272 307Q331 300 372.0 284.5Q413 269 434.5 237.0Q456 205 455 150Q455 98 430.5 62.0Q406 26 362.5 7.0Q319 -12 261 -12Z"/><path transform="translate(374.13,330.00) scale(0.02100,-0.02100)" d="M298 -12Q226 -12 170.0 22.5Q114 57 82.0 119.0Q50 181 50 263Q50 346 82.0 407.5Q114 469 170.0 503.5Q226 538 298 538Q388 538 448.5 490.0Q509 442 526 361H440Q429 411 389.5 438.5Q350 466 297 466Q251 466 214.5 443.0Q178 420 157.0 375.0Q136 330 136 263Q136 213 148.0 174.5Q160 136 181.5 110.5Q203 85 232.5 72.0Q262 59 297 59Q333 59 362.5 71.5Q392 84 412.5 108.0Q433 132 440 165H526Q510 86 448.5 37.0Q387 -12 298 -12Z"/><path transform="translate(386.24,330.00) scale(0.02100,-0.02100)" d="M289 -12Q219 -12 165.0 22.0Q111 56 80.5 118.0Q50 180 50 263Q50 346 80.5 408.0Q111 470 165.5 504.0Q220 538 291 538Q367 538 418.0 504.0Q469 470 495.0 413.0Q521 356 521 288Q521 278 521.0 268.0Q521 258 520 244H113V309H439Q437 386 394.5 426.5Q352 467 289 467Q247 467 211.5 446.5Q176 426 154.0 386.0Q132 346 132 286V258Q132 192 154.0 147.5Q176 103 211.5 81.0Q247 59 289 59Q345 59 377.0 80.5Q409 102 424 142H507Q495 98 465.5 63.0Q436 28 391.5 8.0Q347 -12 289 -12Z"/><path transform="translate(398.13,330.00) scale(0.02100,-0.02100)" d="M71 0V526H147L151 443Q174 488 217.5 513.0Q261 538 318 538Q376 538 419.0 516.0Q462 494 486.0 449.0Q510 404 510 335V0H426V326Q426 396 391.5 431.0Q357 466 299 466Q260 466 227.0 447.5Q194 429 174.5 393.0Q155 357 155 305V0Z"/><path transform="translate(410.27,330.00) scale(0.02100,-0.02100)" d="M235 -12Q175 -12 135.0 10.5Q95 33 75.0 70.5Q55 108 55 151Q55 203 81.5 239.5Q108 276 156.0 295.0Q204 314 268 314H399Q399 365 387.0 399.0Q375 433 348.0 450.0Q321 467 276 467Q231 467 199.0 444.5Q167 422 159 378H73Q79 430 108.0 465.5Q137 501 181.5 519.5Q226 538 276 538Q347 538 393.0 512.5Q439 487 461.0 441.5Q483 396 483 334V0H408L403 90Q393 69 377.5 50.5Q362 32 341.0 18.0Q320 4 293.5 -4.0Q267 -12 235 -12ZM247 59Q280 59 308.0 74.0Q336 89 356.5 114.5Q377 140 388.0 172.0Q399 204 399 239V249H275Q228 249 198.5 237.0Q169 225 156.0 203.5Q143 182 143 155Q143 126 155.0 104.5Q167 83 190.5 71.0Q214 59 247 59Z"/><path transform="translate(421.84,330.00) scale(0.02100,-0.02100)" d="M71 0V526H147L153 430Q171 466 200.0 490.0Q229 514 270.5 526.0Q312 538 364 538V450H312Q282 450 254.0 442.0Q226 434 203.5 416.0Q181 398 168.0 367.0Q155 336 155 289V0Z"/><path transform="translate(430.03,330.00) scale(0.02100,-0.02100)" d="M79 0V526H163V0ZM121 626Q96 626 79.5 642.5Q63 659 63 684Q63 709 79.5 724.5Q96 740 121 740Q145 740 162.0 724.5Q179 709 179 684Q179 659 162.0 642.5Q145 626 121 626Z"/><path transform="translate(435.09,330.00) scale(0.02100,-0.02100)" d="M297 -12Q224 -12 168.0 22.0Q112 56 81.0 118.0Q50 180 50 263Q50 347 81.5 408.5Q113 470 169.5 504.0Q226 538 299 538Q373 538 428.5 504.0Q484 470 515.0 408.5Q546 347 546 263Q546 180 514.5 118.0Q483 56 427.0 22.0Q371 -12 297 -12ZM297 60Q343 60 380.0 82.5Q417 105 438.5 150.5Q460 196 460 263Q460 331 439.0 376.0Q418 421 381.5 443.5Q345 466 299 466Q254 466 217.0 443.5Q180 421 158.0 376.0Q136 331 136 263Q136 196 157.5 150.5Q179 105 215.5 82.5Q252 60 297 60Z"/><path transform="translate(447.63,330.00) scale(0.02100,-0.02100)" d="M261 -12Q190 -12 143.5 9.5Q97 31 73.0 69.5Q49 108 44 159H130Q134 132 148.5 109.5Q163 87 191.0 73.0Q219 59 262 59Q296 59 320.0 69.5Q344 80 356.5 99.0Q369 118 369 143Q369 176 354.5 194.5Q340 213 312.5 222.5Q285 232 244 237Q200 243 166.0 254.0Q132 265 108.5 283.0Q85 301 73.0 328.0Q61 355 61 392Q61 435 84.0 468.0Q107 501 149.5 519.5Q192 538 250 538Q335 538 384.5 499.0Q434 460 443 388H360Q355 425 326.0 446.0Q297 467 249 467Q198 467 172.0 448.0Q146 429 146 398Q146 375 157.5 356.5Q169 338 197.0 325.5Q225 313 272 307Q331 300 372.0 284.5Q413 269 434.5 237.0Q456 205 455 150Q455 98 430.5 62.0Q406 26 362.5 7.0Q319 -12 261 -12Z"/><path transform="translate(463.97,330.00) scale(0.02100,-0.02100)" d="M235 -12Q175 -12 135.0 10.5Q95 33 75.0 70.5Q55 108 55 151Q55 203 81.5 239.5Q108 276 156.0 295.0Q204 314 268 314H399Q399 365 387.0 399.0Q375 433 348.0 450.0Q321 467 276 467Q231 467 199.0 444.5Q167 422 159 378H73Q79 430 108.0 465.5Q137 501 181.5 519.5Q226 538 276 538Q347 538 393.0 512.5Q439 487 461.0 441.5Q483 396 483 334V0H408L403 90Q393 69 377.5 50.5Q362 32 341.0 18.0Q320 4 293.5 -4.0Q267 -12 235 -12ZM247 59Q280 59 308.0 74.0Q336 89 356.5 114.5Q377 140 388.0 172.0Q399 204 399 239V249H275Q228 249 198.5 237.0Q169 225 156.0 203.5Q143 182 143 155Q143 126 155.0 104.5Q167 83 190.5 71.0Q214 59 247 59Z"/><path transform="translate(475.54,330.00) scale(0.02100,-0.02100)" d="M261 -12Q190 -12 143.5 9.5Q97 31 73.0 69.5Q49 108 44 159H130Q134 132 148.5 109.5Q163 87 191.0 73.0Q219 59 262 59Q296 59 320.0 69.5Q344 80 356.5 99.0Q369 118 369 143Q369 176 354.5 194.5Q340 213 312.5 222.5Q285 232 244 237Q200 243 166.0 254.0Q132 265 108.5 283.0Q85 301 73.0 328.0Q61 355 61 392Q61 435 84.0 468.0Q107 501 149.5 519.5Q192 538 250 538Q335 538 384.5 499.0Q434 460 443 388H360Q355 425 326.0 446.0Q297 467 249 467Q198 467 172.0 448.0Q146 429 146 398Q146 375 157.5 356.5Q169 338 197.0 325.5Q225 313 272 307Q331 300 372.0 284.5Q413 269 434.5 237.0Q456 205 455 150Q455 98 430.5 62.0Q406 26 362.5 7.0Q319 -12 261 -12Z"/><path transform="translate(491.87,330.00) scale(0.02100,-0.02100)" d="M235 -12Q175 -12 135.0 10.5Q95 33 75.0 70.5Q55 108 55 151Q55 203 81.5 239.5Q108 276 156.0 295.0Q204 314 268 314H399Q399 365 387.0 399.0Q375 433 348.0 450.0Q321 467 276 467Q231 467 199.0 444.5Q167 422 159 378H73Q79 430 108.0 465.5Q137 501 181.5 519.5Q226 538 276 538Q347 538 393.0 512.5Q439 487 461.0 441.5Q483 396 483 334V0H408L403 90Q393 69 377.5 50.5Q362 32 341.0 18.0Q320 4 293.5 -4.0Q267 -12 235 -12ZM247 59Q280 59 308.0 74.0Q336 89 356.5 114.5Q377 140 388.0 172.0Q399 204 399 239V249H275Q228 249 198.5 237.0Q169 225 156.0 203.5Q143 182 143 155Q143 126 155.0 104.5Q167 83 190.5 71.0Q214 59 247 59Z"/><path transform="translate(503.45,330.00) scale(0.02100,-0.02100)" d="M71 0V526H147L151 443Q174 488 217.5 513.0Q261 538 318 538Q376 538 419.0 516.0Q462 494 486.0 449.0Q510 404 510 335V0H426V326Q426 396 391.5 431.0Q357 466 299 466Q260 466 227.0 447.5Q194 429 174.5 393.0Q155 357 155 305V0Z"/><path transform="translate(521.23,330.00) scale(0.02100,-0.02100)" d="M235 -12Q175 -12 135.0 10.5Q95 33 75.0 70.5Q55 108 55 151Q55 203 81.5 239.5Q108 276 156.0 295.0Q204 314 268 314H399Q399 365 387.0 399.0Q375 433 348.0 450.0Q321 467 276 467Q231 467 199.0 444.5Q167 422 159 378H73Q79 430 108.0 465.5Q137 501 181.5 519.5Q226 538 276 538Q347 538 393.0 512.5Q439 487 461.0 441.5Q483 396 483 334V0H408L403 90Q393 69 377.5 50.5Q362 32 341.0 18.0Q320 4 293.5 -4.0Q267 -12 235 -12ZM247 59Q280 59 308.0 74.0Q336 89 356.5 114.5Q377 140 388.0 172.0Q399 204 399 239V249H275Q228 249 198.5 237.0Q169 225 156.0 203.5Q143 182 143 155Q143 126 155.0 104.5Q167 83 190.5 71.0Q214 59 247 59Z"/><path transform="translate(532.80,330.00) scale(0.02100,-0.02100)" d="M71 0V720H155V0Z"/><path transform="translate(537.55,330.00) scale(0.02100,-0.02100)" d="M275 0Q230 0 197.0 14.0Q164 28 146.5 61.5Q129 95 129 152V455H37V526H129L140 657H213V526H362V455H213V152Q213 105 232.0 88.5Q251 72 299 72H360V0Z"/><path transform="translate(546.08,330.00) scale(0.02100,-0.02100)" d="M289 -12Q219 -12 165.0 22.0Q111 56 80.5 118.0Q50 180 50 263Q50 346 80.5 408.0Q111 470 165.5 504.0Q220 538 291 538Q367 538 418.0 504.0Q469 470 495.0 413.0Q521 356 521 288Q521 278 521.0 268.0Q521 258 520 244H113V309H439Q437 386 394.5 426.5Q352 467 289 467Q247 467 211.5 446.5Q176 426 154.0 386.0Q132 346 132 286V258Q132 192 154.0 147.5Q176 103 211.5 81.0Q247 59 289 59Q345 59 377.0 80.5Q409 102 424 142H507Q495 98 465.5 63.0Q436 28 391.5 8.0Q347 -12 289 -12Z"/><path transform="translate(557.96,330.00) scale(0.02100,-0.02100)" d="M71 0V526H147L153 430Q171 466 200.0 490.0Q229 514 270.5 526.0Q312 538 364 538V450H312Q282 450 254.0 442.0Q226 434 203.5 416.0Q181 398 168.0 367.0Q155 336 155 289V0Z"/><path transform="translate(566.15,330.00) scale(0.02100,-0.02100)" d="M71 0V526H147L151 443Q174 488 217.5 513.0Q261 538 318 538Q376 538 419.0 516.0Q462 494 486.0 449.0Q510 404 510 335V0H426V326Q426 396 391.5 431.0Q357 466 299 466Q260 466 227.0 447.5Q194 429 174.5 393.0Q155 357 155 305V0Z"/><path transform="translate(578.29,330.00) scale(0.02100,-0.02100)" d="M235 -12Q175 -12 135.0 10.5Q95 33 75.0 70.5Q55 108 55 151Q55 203 81.5 239.5Q108 276 156.0 295.0Q204 314 268 314H399Q399 365 387.0 399.0Q375 433 348.0 450.0Q321 467 276 467Q231 467 199.0 444.5Q167 422 159 378H73Q79 430 108.0 465.5Q137 501 181.5 519.5Q226 538 276 538Q347 538 393.0 512.5Q439 487 461.0 441.5Q483 396 483 334V0H408L403 90Q393 69 377.5 50.5Q362 32 341.0 18.0Q320 4 293.5 -4.0Q267 -12 235 -12ZM247 59Q280 59 308.0 74.0Q336 89 356.5 114.5Q377 140 388.0 172.0Q399 204 399 239V249H275Q228 249 198.5 237.0Q169 225 156.0 203.5Q143 182 143 155Q143 126 155.0 104.5Q167 83 190.5 71.0Q214 59 247 59Z"/><path transform="translate(589.86,330.00) scale(0.02100,-0.02100)" d="M275 0Q230 0 197.0 14.0Q164 28 146.5 61.5Q129 95 129 152V455H37V526H129L140 657H213V526H362V455H213V152Q213 105 232.0 88.5Q251 72 299 72H360V0Z"/><path transform="translate(598.39,330.00) scale(0.02100,-0.02100)" d="M79 0V526H163V0ZM121 626Q96 626 79.5 642.5Q63 659 63 684Q63 709 79.5 724.5Q96 740 121 740Q145 740 162.0 724.5Q179 709 179 684Q179 659 162.0 642.5Q145 626 121 626Z"/><path transform="translate(603.45,330.00) scale(0.02100,-0.02100)" d="M224 0 24 526H113L273 81L434 526H520L321 0Z"/><path transform="translate(614.87,330.00) scale(0.02100,-0.02100)" d="M289 -12Q219 -12 165.0 22.0Q111 56 80.5 118.0Q50 180 50 263Q50 346 80.5 408.0Q111 470 165.5 504.0Q220 538 291 538Q367 538 418.0 504.0Q469 470 495.0 413.0Q521 356 521 288Q521 278 521.0 268.0Q521 258 520 244H113V309H439Q437 386 394.5 426.5Q352 467 289 467Q247 467 211.5 446.5Q176 426 154.0 386.0Q132 346 132 286V258Q132 192 154.0 147.5Q176 103 211.5 81.0Q247 59 289 59Q345 59 377.0 80.5Q409 102 424 142H507Q495 98 465.5 63.0Q436 28 391.5 8.0Q347 -12 289 -12Z"/><path transform="translate(632.41,330.00) scale(0.02100,-0.02100)" d="M275 0Q230 0 197.0 14.0Q164 28 146.5 61.5Q129 95 129 152V455H37V526H129L140 657H213V526H362V455H213V152Q213 105 232.0 88.5Q251 72 299 72H360V0Z"/><path transform="translate(640.93,330.00) scale(0.02100,-0.02100)" d="M297 -12Q224 -12 168.0 22.0Q112 56 81.0 118.0Q50 180 50 263Q50 347 81.5 408.5Q113 470 169.5 504.0Q226 538 299 538Q373 538 428.5 504.0Q484 470 515.0 408.5Q546 347 546 263Q546 180 514.5 118.0Q483 56 427.0 22.0Q371 -12 297 -12ZM297 60Q343 60 380.0 82.5Q417 105 438.5 150.5Q460 196 460 263Q460 331 439.0 376.0Q418 421 381.5 443.5Q345 466 299 466Q254 466 217.0 443.5Q180 421 158.0 376.0Q136 331 136 263Q136 196 157.5 150.5Q179 105 215.5 82.5Q252 60 297 60Z"/><path transform="translate(659.12,330.00) scale(0.02100,-0.02100)" d="M71 0V720H155V0Z"/><path transform="translate(663.86,330.00) scale(0.02100,-0.02100)" d="M235 -12Q175 -12 135.0 10.5Q95 33 75.0 70.5Q55 108 55 151Q55 203 81.5 239.5Q108 276 156.0 295.0Q204 314 268 314H399Q399 365 387.0 399.0Q375 433 348.0 450.0Q321 467 276 467Q231 467 199.0 444.5Q167 422 159 378H73Q79 430 108.0 465.5Q137 501 181.5 519.5Q226 538 276 538Q347 538 393.0 512.5Q439 487 461.0 441.5Q483 396 483 334V0H408L403 90Q393 69 377.5 50.5Q362 32 341.0 18.0Q320 4 293.5 -4.0Q267 -12 235 -12ZM247 59Q280 59 308.0 74.0Q336 89 356.5 114.5Q377 140 388.0 172.0Q399 204 399 239V249H275Q228 249 198.5 237.0Q169 225 156.0 203.5Q143 182 143 155Q143 126 155.0 104.5Q167 83 190.5 71.0Q214 59 247 59Z"/><path transform="translate(675.44,330.00) scale(0.02100,-0.02100)" d="M130 -220 249 56H220L23 526H114L277 121L447 526H534L217 -220Z"/><path transform="translate(687.13,330.00) scale(0.02100,-0.02100)" d="M297 -12Q224 -12 168.0 22.0Q112 56 81.0 118.0Q50 180 50 263Q50 347 81.5 408.5Q113 470 169.5 504.0Q226 538 299 538Q373 538 428.5 504.0Q484 470 515.0 408.5Q546 347 546 263Q546 180 514.5 118.0Q483 56 427.0 22.0Q371 -12 297 -12ZM297 60Q343 60 380.0 82.5Q417 105 438.5 150.5Q460 196 460 263Q460 331 439.0 376.0Q418 421 381.5 443.5Q345 466 299 466Q254 466 217.0 443.5Q180 421 158.0 376.0Q136 331 136 263Q136 196 157.5 150.5Q179 105 215.5 82.5Q252 60 297 60Z"/><path transform="translate(699.67,330.00) scale(0.02100,-0.02100)" d="M104 0V582Q104 630 120.0 660.5Q136 691 167.5 705.5Q199 720 245 720H322V648H259Q221 648 204.5 632.5Q188 617 188 579V0ZM22 455V526H328V455Z"/><path transform="translate(707.25,330.00) scale(0.02100,-0.02100)" d="M104 0V582Q104 630 120.0 660.5Q136 691 167.5 705.5Q199 720 245 720H322V648H259Q221 648 204.5 632.5Q188 617 188 579V0ZM22 455V526H328V455Z"/><path transform="translate(714.83,330.00) scale(0.02100,-0.02100)" d="M261 -12Q190 -12 143.5 9.5Q97 31 73.0 69.5Q49 108 44 159H130Q134 132 148.5 109.5Q163 87 191.0 73.0Q219 59 262 59Q296 59 320.0 69.5Q344 80 356.5 99.0Q369 118 369 143Q369 176 354.5 194.5Q340 213 312.5 222.5Q285 232 244 237Q200 243 166.0 254.0Q132 265 108.5 283.0Q85 301 73.0 328.0Q61 355 61 392Q61 435 84.0 468.0Q107 501 149.5 519.5Q192 538 250 538Q335 538 384.5 499.0Q434 460 443 388H360Q355 425 326.0 446.0Q297 467 249 467Q198 467 172.0 448.0Q146 429 146 398Q146 375 157.5 356.5Q169 338 197.0 325.5Q225 313 272 307Q331 300 372.0 284.5Q413 269 434.5 237.0Q456 205 455 150Q455 98 430.5 62.0Q406 26 362.5 7.0Q319 -12 261 -12Z"/><path transform="translate(731.17,330.00) scale(0.02100,-0.02100)" d="M71 275V346H799V275Z"/></g><g fill="#c9c4bb"><path transform="translate(72.00,360.00) scale(0.02100,-0.02100)" d="M289 -12Q219 -12 165.0 22.0Q111 56 80.5 118.0Q50 180 50 263Q50 346 80.5 408.0Q111 470 165.5 504.0Q220 538 291 538Q367 538 418.0 504.0Q469 470 495.0 413.0Q521 356 521 288Q521 278 521.0 268.0Q521 258 520 244H113V309H439Q437 386 394.5 426.5Q352 467 289 467Q247 467 211.5 446.5Q176 426 154.0 386.0Q132 346 132 286V258Q132 192 154.0 147.5Q176 103 211.5 81.0Q247 59 289 59Q345 59 377.0 80.5Q409 102 424 142H507Q495 98 465.5 63.0Q436 28 391.5 8.0Q347 -12 289 -12Z"/><path transform="translate(83.89,360.00) scale(0.02100,-0.02100)" d="M224 0 24 526H113L273 81L434 526H520L321 0Z"/><path transform="translate(95.31,360.00) scale(0.02100,-0.02100)" d="M235 -12Q175 -12 135.0 10.5Q95 33 75.0 70.5Q55 108 55 151Q55 203 81.5 239.5Q108 276 156.0 295.0Q204 314 268 314H399Q399 365 387.0 399.0Q375 433 348.0 450.0Q321 467 276 467Q231 467 199.0 444.5Q167 422 159 378H73Q79 430 108.0 465.5Q137 501 181.5 519.5Q226 538 276 538Q347 538 393.0 512.5Q439 487 461.0 441.5Q483 396 483 334V0H408L403 90Q393 69 377.5 50.5Q362 32 341.0 18.0Q320 4 293.5 -4.0Q267 -12 235 -12ZM247 59Q280 59 308.0 74.0Q336 89 356.5 114.5Q377 140 388.0 172.0Q399 204 399 239V249H275Q228 249 198.5 237.0Q169 225 156.0 203.5Q143 182 143 155Q143 126 155.0 104.5Q167 83 190.5 71.0Q214 59 247 59Z"/><path transform="translate(106.88,360.00) scale(0.02100,-0.02100)" d="M71 0V720H155V0Z"/><path transform="translate(111.63,360.00) scale(0.02100,-0.02100)" d="M260 -12Q202 -12 159.0 10.0Q116 32 92.0 77.5Q68 123 68 191V526H152V200Q152 130 186.5 95.0Q221 60 279 60Q319 60 351.0 78.5Q383 97 402.5 133.0Q422 169 422 221V526H506V0H430L425 84Q404 38 360.5 13.0Q317 -12 260 -12Z"/><path transform="translate(123.74,360.00) scale(0.02100,-0.02100)" d="M235 -12Q175 -12 135.0 10.5Q95 33 75.0 70.5Q55 108 55 151Q55 203 81.5 239.5Q108 276 156.0 295.0Q204 314 268 314H399Q399 365 387.0 399.0Q375 433 348.0 450.0Q321 467 276 467Q231 467 199.0 444.5Q167 422 159 378H73Q79 430 108.0 465.5Q137 501 181.5 519.5Q226 538 276 538Q347 538 393.0 512.5Q439 487 461.0 441.5Q483 396 483 334V0H408L403 90Q393 69 377.5 50.5Q362 32 341.0 18.0Q320 4 293.5 -4.0Q267 -12 235 -12ZM247 59Q280 59 308.0 74.0Q336 89 356.5 114.5Q377 140 388.0 172.0Q399 204 399 239V249H275Q228 249 198.5 237.0Q169 225 156.0 203.5Q143 182 143 155Q143 126 155.0 104.5Q167 83 190.5 71.0Q214 59 247 59Z"/><path transform="translate(135.31,360.00) scale(0.02100,-0.02100)" d="M275 0Q230 0 197.0 14.0Q164 28 146.5 61.5Q129 95 129 152V455H37V526H129L140 657H213V526H362V455H213V152Q213 105 232.0 88.5Q251 72 299 72H360V0Z"/><path transform="translate(143.84,360.00) scale(0.02100,-0.02100)" d="M289 -12Q219 -12 165.0 22.0Q111 56 80.5 118.0Q50 180 50 263Q50 346 80.5 408.0Q111 470 165.5 504.0Q220 538 291 538Q367 538 418.0 504.0Q469 470 495.0 413.0Q521 356 521 288Q521 278 521.0 268.0Q521 258 520 244H113V309H439Q437 386 394.5 426.5Q352 467 289 467Q247 467 211.5 446.5Q176 426 154.0 386.0Q132 346 132 286V258Q132 192 154.0 147.5Q176 103 211.5 81.0Q247 59 289 59Q345 59 377.0 80.5Q409 102 424 142H507Q495 98 465.5 63.0Q436 28 391.5 8.0Q347 -12 289 -12Z"/><path transform="translate(155.73,360.00) scale(0.02100,-0.02100)" d="M288 -12Q218 -12 164.0 24.0Q110 60 80.0 122.5Q50 185 50 264Q50 344 80.0 405.5Q110 467 164.0 502.5Q218 538 289 538Q351 538 395.5 513.0Q440 488 466 443V720H550V0H474L467 84Q452 59 427.5 37.0Q403 15 368.5 1.5Q334 -12 288 -12ZM299 61Q349 61 386.0 85.5Q423 110 443.0 155.5Q463 201 463 263Q463 325 443.0 370.5Q423 416 386.0 440.5Q349 465 299 465Q252 465 215.0 440.5Q178 416 157.0 370.5Q136 325 136 263Q136 201 157.0 155.5Q178 110 215.0 85.5Q252 61 299 61Z"/><path transform="translate(174.42,360.00) scale(0.02100,-0.02100)" d="M333 -12Q285 -12 250.5 2.5Q216 17 192.5 39.0Q169 61 154 82L147 0H71V720H155V443Q179 490 226.0 514.0Q273 538 331 538Q403 538 457.0 503.0Q511 468 541.0 406.5Q571 345 571 265Q571 186 541.0 123.0Q511 60 457.5 24.0Q404 -12 333 -12ZM322 61Q369 61 405.5 85.5Q442 110 463.5 155.5Q485 201 485 263Q485 325 463.5 370.5Q442 416 405.5 440.5Q369 465 322 465Q272 465 235.0 440.5Q198 416 178.0 370.5Q158 325 158 263Q158 201 178.0 155.5Q198 110 235.0 85.5Q272 61 322 61Z"/><path transform="translate(187.48,360.00) scale(0.02100,-0.02100)" d="M130 -220 249 56H220L23 526H114L277 121L447 526H534L217 -220Z"/><path transform="translate(204.82,360.00) scale(0.02100,-0.02100)" d="M333 -12Q285 -12 250.5 2.5Q216 17 192.5 39.0Q169 61 154 82L147 0H71V720H155V443Q179 490 226.0 514.0Q273 538 331 538Q403 538 457.0 503.0Q511 468 541.0 406.5Q571 345 571 265Q571 186 541.0 123.0Q511 60 457.5 24.0Q404 -12 333 -12ZM322 61Q369 61 405.5 85.5Q442 110 463.5 155.5Q485 201 485 263Q485 325 463.5 370.5Q442 416 405.5 440.5Q369 465 322 465Q272 465 235.0 440.5Q198 416 178.0 370.5Q158 325 158 263Q158 201 178.0 155.5Q198 110 235.0 85.5Q272 61 322 61Z"/><path transform="translate(217.89,360.00) scale(0.02100,-0.02100)" d="M297 -12Q224 -12 168.0 22.0Q112 56 81.0 118.0Q50 180 50 263Q50 347 81.5 408.5Q113 470 169.5 504.0Q226 538 299 538Q373 538 428.5 504.0Q484 470 515.0 408.5Q546 347 546 263Q546 180 514.5 118.0Q483 56 427.0 22.0Q371 -12 297 -12ZM297 60Q343 60 380.0 82.5Q417 105 438.5 150.5Q460 196 460 263Q460 331 439.0 376.0Q418 421 381.5 443.5Q345 466 299 466Q254 466 217.0 443.5Q180 421 158.0 376.0Q136 331 136 263Q136 196 157.5 150.5Q179 105 215.5 82.5Q252 60 297 60Z"/><path transform="translate(230.42,360.00) scale(0.02100,-0.02100)" d="M275 0Q230 0 197.0 14.0Q164 28 146.5 61.5Q129 95 129 152V455H37V526H129L140 657H213V526H362V455H213V152Q213 105 232.0 88.5Q251 72 299 72H360V0Z"/><path transform="translate(238.95,360.00) scale(0.02100,-0.02100)" d="M71 0V720H155V441Q181 486 226.0 512.0Q271 538 323 538Q384 538 426.5 515.5Q469 493 491.5 447.0Q514 401 514 330V0H431V321Q431 393 397.0 429.5Q363 466 305 466Q264 466 230.0 446.5Q196 427 175.5 389.0Q155 351 155 297V0Z"/><path transform="translate(256.82,360.00) scale(0.02100,-0.02100)" d="M104 0V582Q104 630 120.0 660.5Q136 691 167.5 705.5Q199 720 245 720H322V648H259Q221 648 204.5 632.5Q188 617 188 579V0ZM22 455V526H328V455Z"/><path transform="translate(264.40,360.00) scale(0.02100,-0.02100)" d="M79 0V526H163V0ZM121 626Q96 626 79.5 642.5Q63 659 63 684Q63 709 79.5 724.5Q96 740 121 740Q145 740 162.0 724.5Q179 709 179 684Q179 659 162.0 642.5Q145 626 121 626Z"/><path transform="translate(269.46,360.00) scale(0.02100,-0.02100)" d="M71 0V526H147L151 443Q174 488 217.5 513.0Q261 538 318 538Q376 538 419.0 516.0Q462 494 486.0 449.0Q510 404 510 335V0H426V326Q426 396 391.5 431.0Q357 466 299 466Q260 466 227.0 447.5Q194 429 174.5 393.0Q155 357 155 305V0Z"/><path transform="translate(281.60,360.00) scale(0.02100,-0.02100)" d="M235 -12Q175 -12 135.0 10.5Q95 33 75.0 70.5Q55 108 55 151Q55 203 81.5 239.5Q108 276 156.0 295.0Q204 314 268 314H399Q399 365 387.0 399.0Q375 433 348.0 450.0Q321 467 276 467Q231 467 199.0 444.5Q167 422 159 378H73Q79 430 108.0 465.5Q137 501 181.5 519.5Q226 538 276 538Q347 538 393.0 512.5Q439 487 461.0 441.5Q483 396 483 334V0H408L403 90Q393 69 377.5 50.5Q362 32 341.0 18.0Q320 4 293.5 -4.0Q267 -12 235 -12ZM247 59Q280 59 308.0 74.0Q336 89 356.5 114.5Q377 140 388.0 172.0Q399 204 399 239V249H275Q228 249 198.5 237.0Q169 225 156.0 203.5Q143 182 143 155Q143 126 155.0 104.5Q167 83 190.5 71.0Q214 59 247 59Z"/><path transform="translate(293.17,360.00) scale(0.02100,-0.02100)" d="M71 0V526H147L151 443Q174 488 217.5 513.0Q261 538 318 538Q376 538 419.0 516.0Q462 494 486.0 449.0Q510 404 510 335V0H426V326Q426 396 391.5 431.0Q357 466 299 466Q260 466 227.0 447.5Q194 429 174.5 393.0Q155 357 155 305V0Z"/><path transform="translate(305.31,360.00) scale(0.02100,-0.02100)" d="M298 -12Q226 -12 170.0 22.5Q114 57 82.0 119.0Q50 181 50 263Q50 346 82.0 407.5Q114 469 170.0 503.5Q226 538 298 538Q388 538 448.5 490.0Q509 442 526 361H440Q429 411 389.5 438.5Q350 466 297 466Q251 466 214.5 443.0Q178 420 157.0 375.0Q136 330 136 263Q136 213 148.0 174.5Q160 136 181.5 110.5Q203 85 232.5 72.0Q262 59 297 59Q333 59 362.5 71.5Q392 84 412.5 108.0Q433 132 440 165H526Q510 86 448.5 37.0Q387 -12 298 -12Z"/><path transform="translate(317.43,360.00) scale(0.02100,-0.02100)" d="M79 0V526H163V0ZM121 626Q96 626 79.5 642.5Q63 659 63 684Q63 709 79.5 724.5Q96 740 121 740Q145 740 162.0 724.5Q179 709 179 684Q179 659 162.0 642.5Q145 626 121 626Z"/><path transform="translate(322.49,360.00) scale(0.02100,-0.02100)" d="M235 -12Q175 -12 135.0 10.5Q95 33 75.0 70.5Q55 108 55 151Q55 203 81.5 239.5Q108 276 156.0 295.0Q204 314 268 314H399Q399 365 387.0 399.0Q375 433 348.0 450.0Q321 467 276 467Q231 467 199.0 444.5Q167 422 159 378H73Q79 430 108.0 465.5Q137 501 181.5 519.5Q226 538 276 538Q347 538 393.0 512.5Q439 487 461.0 441.5Q483 396 483 334V0H408L403 90Q393 69 377.5 50.5Q362 32 341.0 18.0Q320 4 293.5 -4.0Q267 -12 235 -12ZM247 59Q280 59 308.0 74.0Q336 89 356.5 114.5Q377 140 388.0 172.0Q399 204 399 239V249H275Q228 249 198.5 237.0Q169 225 156.0 203.5Q143 182 143 155Q143 126 155.0 104.5Q167 83 190.5 71.0Q214 59 247 59Z"/><path transform="translate(334.06,360.00) scale(0.02100,-0.02100)" d="M71 0V720H155V0Z"/><path transform="translate(344.45,360.00) scale(0.02100,-0.02100)" d="M79 0V526H163V0ZM121 626Q96 626 79.5 642.5Q63 659 63 684Q63 709 79.5 724.5Q96 740 121 740Q145 740 162.0 724.5Q179 709 179 684Q179 659 162.0 642.5Q145 626 121 626Z"/><path transform="translate(349.51,360.00) scale(0.02100,-0.02100)" d="M71 0V526H147L151 454Q175 493 216.0 515.5Q257 538 302 538Q340 538 370.5 527.5Q401 517 424.0 495.5Q447 474 461 442Q487 489 531.5 513.5Q576 538 625 538Q683 538 724.5 515.5Q766 493 788.5 447.5Q811 402 811 334V0H728V325Q728 396 697.0 431.0Q666 466 613 466Q577 466 547.5 447.0Q518 428 500.5 391.0Q483 354 483 301V0H399V325Q399 396 368.0 431.0Q337 466 285 466Q250 466 220.5 447.0Q191 428 173.0 391.0Q155 354 155 301V0Z"/><path transform="translate(367.97,360.00) scale(0.02100,-0.02100)" d="M71 -220V526H147L154 444Q170 470 194.5 491.0Q219 512 253.5 525.0Q288 538 333 538Q404 538 457.5 502.0Q511 466 541.0 404.0Q571 342 571 262Q571 183 541.0 121.0Q511 59 457.0 23.5Q403 -12 332 -12Q271 -12 225.0 13.0Q179 38 155 83V-220ZM322 61Q369 61 405.5 85.5Q442 110 463.5 155.5Q485 201 485 263Q485 325 463.5 370.5Q442 416 405.5 440.5Q369 465 322 465Q272 465 235.0 440.5Q198 416 178.0 370.5Q158 325 158 263Q158 201 178.0 155.5Q198 110 235.0 85.5Q272 61 322 61Z"/><path transform="translate(381.04,360.00) scale(0.02100,-0.02100)" d="M235 -12Q175 -12 135.0 10.5Q95 33 75.0 70.5Q55 108 55 151Q55 203 81.5 239.5Q108 276 156.0 295.0Q204 314 268 314H399Q399 365 387.0 399.0Q375 433 348.0 450.0Q321 467 276 467Q231 467 199.0 444.5Q167 422 159 378H73Q79 430 108.0 465.5Q137 501 181.5 519.5Q226 538 276 538Q347 538 393.0 512.5Q439 487 461.0 441.5Q483 396 483 334V0H408L403 90Q393 69 377.5 50.5Q362 32 341.0 18.0Q320 4 293.5 -4.0Q267 -12 235 -12ZM247 59Q280 59 308.0 74.0Q336 89 356.5 114.5Q377 140 388.0 172.0Q399 204 399 239V249H275Q228 249 198.5 237.0Q169 225 156.0 203.5Q143 182 143 155Q143 126 155.0 104.5Q167 83 190.5 71.0Q214 59 247 59Z"/><path transform="translate(392.61,360.00) scale(0.02100,-0.02100)" d="M298 -12Q226 -12 170.0 22.5Q114 57 82.0 119.0Q50 181 50 263Q50 346 82.0 407.5Q114 469 170.0 503.5Q226 538 298 538Q388 538 448.5 490.0Q509 442 526 361H440Q429 411 389.5 438.5Q350 466 297 466Q251 466 214.5 443.0Q178 420 157.0 375.0Q136 330 136 263Q136 213 148.0 174.5Q160 136 181.5 110.5Q203 85 232.5 72.0Q262 59 297 59Q333 59 362.5 71.5Q392 84 412.5 108.0Q433 132 440 165H526Q510 86 448.5 37.0Q387 -12 298 -12Z"/><path transform="translate(404.72,360.00) scale(0.02100,-0.02100)" d="M275 0Q230 0 197.0 14.0Q164 28 146.5 61.5Q129 95 129 152V455H37V526H129L140 657H213V526H362V455H213V152Q213 105 232.0 88.5Q251 72 299 72H360V0Z"/><path transform="translate(418.90,360.00) scale(0.02100,-0.02100)" d="M235 -12Q175 -12 135.0 10.5Q95 33 75.0 70.5Q55 108 55 151Q55 203 81.5 239.5Q108 276 156.0 295.0Q204 314 268 314H399Q399 365 387.0 399.0Q375 433 348.0 450.0Q321 467 276 467Q231 467 199.0 444.5Q167 422 159 378H73Q79 430 108.0 465.5Q137 501 181.5 519.5Q226 538 276 538Q347 538 393.0 512.5Q439 487 461.0 441.5Q483 396 483 334V0H408L403 90Q393 69 377.5 50.5Q362 32 341.0 18.0Q320 4 293.5 -4.0Q267 -12 235 -12ZM247 59Q280 59 308.0 74.0Q336 89 356.5 114.5Q377 140 388.0 172.0Q399 204 399 239V249H275Q228 249 198.5 237.0Q169 225 156.0 203.5Q143 182 143 155Q143 126 155.0 104.5Q167 83 190.5 71.0Q214 59 247 59Z"/><path transform="translate(430.47,360.00) scale(0.02100,-0.02100)" d="M71 0V526H147L151 443Q174 488 217.5 513.0Q261 538 318 538Q376 538 419.0 516.0Q462 494 486.0 449.0Q510 404 510 335V0H426V326Q426 396 391.5 431.0Q357 466 299 466Q260 466 227.0 447.5Q194 429 174.5 393.0Q155 357 155 305V0Z"/><path transform="translate(442.61,360.00) scale(0.02100,-0.02100)" d="M288 -12Q218 -12 164.0 24.0Q110 60 80.0 122.5Q50 185 50 264Q50 344 80.0 405.5Q110 467 164.0 502.5Q218 538 289 538Q351 538 395.5 513.0Q440 488 466 443V720H550V0H474L467 84Q452 59 427.5 37.0Q403 15 368.5 1.5Q334 -12 288 -12ZM299 61Q349 61 386.0 85.5Q423 110 443.0 155.5Q463 201 463 263Q463 325 443.0 370.5Q423 416 386.0 440.5Q349 465 299 465Q252 465 215.0 440.5Q178 416 157.0 370.5Q136 325 136 263Q136 201 157.0 155.5Q178 110 215.0 85.5Q252 61 299 61Z"/><path transform="translate(461.30,360.00) scale(0.02100,-0.02100)" d="M288 -12Q218 -12 164.0 24.0Q110 60 80.0 122.5Q50 185 50 264Q50 344 80.0 405.5Q110 467 164.0 502.5Q218 538 289 538Q351 538 395.5 513.0Q440 488 466 443V720H550V0H474L467 84Q452 59 427.5 37.0Q403 15 368.5 1.5Q334 -12 288 -12ZM299 61Q349 61 386.0 85.5Q423 110 443.0 155.5Q463 201 463 263Q463 325 443.0 370.5Q423 416 386.0 440.5Q349 465 299 465Q252 465 215.0 440.5Q178 416 157.0 370.5Q136 325 136 263Q136 201 157.0 155.5Q178 110 215.0 85.5Q252 61 299 61Z"/><path transform="translate(474.34,360.00) scale(0.02100,-0.02100)" d="M79 0V526H163V0ZM121 626Q96 626 79.5 642.5Q63 659 63 684Q63 709 79.5 724.5Q96 740 121 740Q145 740 162.0 724.5Q179 709 179 684Q179 659 162.0 642.5Q145 626 121 626Z"/><path transform="translate(479.40,360.00) scale(0.02100,-0.02100)" d="M261 -12Q190 -12 143.5 9.5Q97 31 73.0 69.5Q49 108 44 159H130Q134 132 148.5 109.5Q163 87 191.0 73.0Q219 59 262 59Q296 59 320.0 69.5Q344 80 356.5 99.0Q369 118 369 143Q369 176 354.5 194.5Q340 213 312.5 222.5Q285 232 244 237Q200 243 166.0 254.0Q132 265 108.5 283.0Q85 301 73.0 328.0Q61 355 61 392Q61 435 84.0 468.0Q107 501 149.5 519.5Q192 538 250 538Q335 538 384.5 499.0Q434 460 443 388H360Q355 425 326.0 446.0Q297 467 249 467Q198 467 172.0 448.0Q146 429 146 398Q146 375 157.5 356.5Q169 338 197.0 325.5Q225 313 272 307Q331 300 372.0 284.5Q413 269 434.5 237.0Q456 205 455 150Q455 98 430.5 62.0Q406 26 362.5 7.0Q319 -12 261 -12Z"/><path transform="translate(490.09,360.00) scale(0.02100,-0.02100)" d="M275 0Q230 0 197.0 14.0Q164 28 146.5 61.5Q129 95 129 152V455H37V526H129L140 657H213V526H362V455H213V152Q213 105 232.0 88.5Q251 72 299 72H360V0Z"/><path transform="translate(498.62,360.00) scale(0.02100,-0.02100)" d="M71 0V526H147L153 430Q171 466 200.0 490.0Q229 514 270.5 526.0Q312 538 364 538V450H312Q282 450 254.0 442.0Q226 434 203.5 416.0Q181 398 168.0 367.0Q155 336 155 289V0Z"/><path transform="translate(506.81,360.00) scale(0.02100,-0.02100)" d="M79 0V526H163V0ZM121 626Q96 626 79.5 642.5Q63 659 63 684Q63 709 79.5 724.5Q96 740 121 740Q145 740 162.0 724.5Q179 709 179 684Q179 659 162.0 642.5Q145 626 121 626Z"/><path transform="translate(511.87,360.00) scale(0.02100,-0.02100)" d="M333 -12Q285 -12 250.5 2.5Q216 17 192.5 39.0Q169 61 154 82L147 0H71V720H155V443Q179 490 226.0 514.0Q273 538 331 538Q403 538 457.0 503.0Q511 468 541.0 406.5Q571 345 571 265Q571 186 541.0 123.0Q511 60 457.5 24.0Q404 -12 333 -12ZM322 61Q369 61 405.5 85.5Q442 110 463.5 155.5Q485 201 485 263Q485 325 463.5 370.5Q442 416 405.5 440.5Q369 465 322 465Q272 465 235.0 440.5Q198 416 178.0 370.5Q158 325 158 263Q158 201 178.0 155.5Q198 110 235.0 85.5Q272 61 322 61Z"/><path transform="translate(524.93,360.00) scale(0.02100,-0.02100)" d="M260 -12Q202 -12 159.0 10.0Q116 32 92.0 77.5Q68 123 68 191V526H152V200Q152 130 186.5 95.0Q221 60 279 60Q319 60 351.0 78.5Q383 97 402.5 133.0Q422 169 422 221V526H506V0H430L425 84Q404 38 360.5 13.0Q317 -12 260 -12Z"/><path transform="translate(537.05,360.00) scale(0.02100,-0.02100)" d="M275 0Q230 0 197.0 14.0Q164 28 146.5 61.5Q129 95 129 152V455H37V526H129L140 657H213V526H362V455H213V152Q213 105 232.0 88.5Q251 72 299 72H360V0Z"/><path transform="translate(545.57,360.00) scale(0.02100,-0.02100)" d="M79 0V526H163V0ZM121 626Q96 626 79.5 642.5Q63 659 63 684Q63 709 79.5 724.5Q96 740 121 740Q145 740 162.0 724.5Q179 709 179 684Q179 659 162.0 642.5Q145 626 121 626Z"/><path transform="translate(550.63,360.00) scale(0.02100,-0.02100)" d="M297 -12Q224 -12 168.0 22.0Q112 56 81.0 118.0Q50 180 50 263Q50 347 81.5 408.5Q113 470 169.5 504.0Q226 538 299 538Q373 538 428.5 504.0Q484 470 515.0 408.5Q546 347 546 263Q546 180 514.5 118.0Q483 56 427.0 22.0Q371 -12 297 -12ZM297 60Q343 60 380.0 82.5Q417 105 438.5 150.5Q460 196 460 263Q460 331 439.0 376.0Q418 421 381.5 443.5Q345 466 299 466Q254 466 217.0 443.5Q180 421 158.0 376.0Q136 331 136 263Q136 196 157.5 150.5Q179 105 215.5 82.5Q252 60 297 60Z"/><path transform="translate(563.17,360.00) scale(0.02100,-0.02100)" d="M71 0V526H147L151 443Q174 488 217.5 513.0Q261 538 318 538Q376 538 419.0 516.0Q462 494 486.0 449.0Q510 404 510 335V0H426V326Q426 396 391.5 431.0Q357 466 299 466Q260 466 227.0 447.5Q194 429 174.5 393.0Q155 357 155 305V0Z"/><path transform="translate(575.31,360.00) scale(0.02100,-0.02100)" d="M235 -12Q175 -12 135.0 10.5Q95 33 75.0 70.5Q55 108 55 151Q55 203 81.5 239.5Q108 276 156.0 295.0Q204 314 268 314H399Q399 365 387.0 399.0Q375 433 348.0 450.0Q321 467 276 467Q231 467 199.0 444.5Q167 422 159 378H73Q79 430 108.0 465.5Q137 501 181.5 519.5Q226 538 276 538Q347 538 393.0 512.5Q439 487 461.0 441.5Q483 396 483 334V0H408L403 90Q393 69 377.5 50.5Q362 32 341.0 18.0Q320 4 293.5 -4.0Q267 -12 235 -12ZM247 59Q280 59 308.0 74.0Q336 89 356.5 114.5Q377 140 388.0 172.0Q399 204 399 239V249H275Q228 249 198.5 237.0Q169 225 156.0 203.5Q143 182 143 155Q143 126 155.0 104.5Q167 83 190.5 71.0Q214 59 247 59Z"/><path transform="translate(586.88,360.00) scale(0.02100,-0.02100)" d="M71 0V720H155V0Z"/><path transform="translate(597.27,360.00) scale(0.02100,-0.02100)" d="M104 0V582Q104 630 120.0 660.5Q136 691 167.5 705.5Q199 720 245 720H322V648H259Q221 648 204.5 632.5Q188 617 188 579V0ZM22 455V526H328V455Z"/><path transform="translate(604.85,360.00) scale(0.02100,-0.02100)" d="M235 -12Q175 -12 135.0 10.5Q95 33 75.0 70.5Q55 108 55 151Q55 203 81.5 239.5Q108 276 156.0 295.0Q204 314 268 314H399Q399 365 387.0 399.0Q375 433 348.0 450.0Q321 467 276 467Q231 467 199.0 444.5Q167 422 159 378H73Q79 430 108.0 465.5Q137 501 181.5 519.5Q226 538 276 538Q347 538 393.0 512.5Q439 487 461.0 441.5Q483 396 483 334V0H408L403 90Q393 69 377.5 50.5Q362 32 341.0 18.0Q320 4 293.5 -4.0Q267 -12 235 -12ZM247 59Q280 59 308.0 74.0Q336 89 356.5 114.5Q377 140 388.0 172.0Q399 204 399 239V249H275Q228 249 198.5 237.0Q169 225 156.0 203.5Q143 182 143 155Q143 126 155.0 104.5Q167 83 190.5 71.0Q214 59 247 59Z"/><path transform="translate(616.43,360.00) scale(0.02100,-0.02100)" d="M79 0V526H163V0ZM121 626Q96 626 79.5 642.5Q63 659 63 684Q63 709 79.5 724.5Q96 740 121 740Q145 740 162.0 724.5Q179 709 179 684Q179 659 162.0 642.5Q145 626 121 626Z"/><path transform="translate(621.49,360.00) scale(0.02100,-0.02100)" d="M71 0V526H147L153 430Q171 466 200.0 490.0Q229 514 270.5 526.0Q312 538 364 538V450H312Q282 450 254.0 442.0Q226 434 203.5 416.0Q181 398 168.0 367.0Q155 336 155 289V0Z"/><path transform="translate(629.68,360.00) scale(0.02100,-0.02100)" d="M71 0V526H147L151 443Q174 488 217.5 513.0Q261 538 318 538Q376 538 419.0 516.0Q462 494 486.0 449.0Q510 404 510 335V0H426V326Q426 396 391.5 431.0Q357 466 299 466Q260 466 227.0 447.5Q194 429 174.5 393.0Q155 357 155 305V0Z"/><path transform="translate(641.81,360.00) scale(0.02100,-0.02100)" d="M289 -12Q219 -12 165.0 22.0Q111 56 80.5 118.0Q50 180 50 263Q50 346 80.5 408.0Q111 470 165.5 504.0Q220 538 291 538Q367 538 418.0 504.0Q469 470 495.0 413.0Q521 356 521 288Q521 278 521.0 268.0Q521 258 520 244H113V309H439Q437 386 394.5 426.5Q352 467 289 467Q247 467 211.5 446.5Q176 426 154.0 386.0Q132 346 132 286V258Q132 192 154.0 147.5Q176 103 211.5 81.0Q247 59 289 59Q345 59 377.0 80.5Q409 102 424 142H507Q495 98 465.5 63.0Q436 28 391.5 8.0Q347 -12 289 -12Z"/><path transform="translate(653.70,360.00) scale(0.02100,-0.02100)" d="M261 -12Q190 -12 143.5 9.5Q97 31 73.0 69.5Q49 108 44 159H130Q134 132 148.5 109.5Q163 87 191.0 73.0Q219 59 262 59Q296 59 320.0 69.5Q344 80 356.5 99.0Q369 118 369 143Q369 176 354.5 194.5Q340 213 312.5 222.5Q285 232 244 237Q200 243 166.0 254.0Q132 265 108.5 283.0Q85 301 73.0 328.0Q61 355 61 392Q61 435 84.0 468.0Q107 501 149.5 519.5Q192 538 250 538Q335 538 384.5 499.0Q434 460 443 388H360Q355 425 326.0 446.0Q297 467 249 467Q198 467 172.0 448.0Q146 429 146 398Q146 375 157.5 356.5Q169 338 197.0 325.5Q225 313 272 307Q331 300 372.0 284.5Q413 269 434.5 237.0Q456 205 455 150Q455 98 430.5 62.0Q406 26 362.5 7.0Q319 -12 261 -12Z"/><path transform="translate(664.39,360.00) scale(0.02100,-0.02100)" d="M261 -12Q190 -12 143.5 9.5Q97 31 73.0 69.5Q49 108 44 159H130Q134 132 148.5 109.5Q163 87 191.0 73.0Q219 59 262 59Q296 59 320.0 69.5Q344 80 356.5 99.0Q369 118 369 143Q369 176 354.5 194.5Q340 213 312.5 222.5Q285 232 244 237Q200 243 166.0 254.0Q132 265 108.5 283.0Q85 301 73.0 328.0Q61 355 61 392Q61 435 84.0 468.0Q107 501 149.5 519.5Q192 538 250 538Q335 538 384.5 499.0Q434 460 443 388H360Q355 425 326.0 446.0Q297 467 249 467Q198 467 172.0 448.0Q146 429 146 398Q146 375 157.5 356.5Q169 338 197.0 325.5Q225 313 272 307Q331 300 372.0 284.5Q413 269 434.5 237.0Q456 205 455 150Q455 98 430.5 62.0Q406 26 362.5 7.0Q319 -12 261 -12Z"/><path transform="translate(675.08,360.00) scale(0.02100,-0.02100)" d="M104 -5Q80 -5 63.5 11.5Q47 28 47 52Q47 76 63.5 92.5Q80 109 104 109Q130 109 145.5 92.5Q161 76 161 52Q161 28 145.5 11.5Q130 -5 104 -5Z"/></g><g fill="#7d8a80"><path transform="translate(72.00,410.00) scale(0.01400,-0.01400)" d="M88 0V496H158L167 421H172Q192 457 235.0 482.5Q278 508 334 508Q425 508 470.5 454.0Q516 400 516 298V0H432V288Q432 354 403.0 391.5Q374 429 313 429Q254 429 213.0 388.5Q172 348 172 272V0Z"/><path transform="translate(81.90,410.00) scale(0.01400,-0.01400)" d="M300 -12Q230 -12 176.0 20.0Q122 52 91.0 110.5Q60 169 60 248Q60 327 91.0 385.5Q122 444 176.0 476.0Q230 508 300 508Q370 508 424.0 476.0Q478 444 509.0 385.5Q540 327 540 248Q540 169 509.0 110.5Q478 52 424.0 20.0Q370 -12 300 -12ZM300 68Q343 68 378.0 87.0Q413 106 433.5 146.0Q454 186 454 248Q454 310 433.5 350.0Q413 390 378.0 409.0Q343 428 300 428Q258 428 223.0 409.0Q188 390 167.0 350.0Q146 310 146 248Q146 155 191.0 111.5Q236 68 300 68Z"/><path transform="translate(101.70,410.00) scale(0.01400,-0.01400)" d="M317 -12Q260 -12 220.5 11.5Q181 35 162 76H156L147 0H78V720H162V425Q181 458 221.5 483.0Q262 508 317 508Q381 508 430.0 478.0Q479 448 507.0 390.0Q535 332 535 249Q535 165 507.0 106.5Q479 48 429.5 18.0Q380 -12 317 -12ZM306 68Q369 68 409.5 112.5Q450 157 450 248Q450 339 409.5 383.5Q369 428 306 428Q243 428 202.0 383.5Q161 339 161 248Q161 157 202.0 112.5Q243 68 306 68Z"/><path transform="translate(111.60,410.00) scale(0.01400,-0.01400)" d="M265 -12Q175 -12 129.0 42.0Q83 96 83 198V496H167V208Q167 142 196.5 104.5Q226 67 286 67Q346 67 387.0 107.5Q428 148 428 224V496H512V0H442L433 75H428Q408 39 365.0 13.5Q322 -12 265 -12Z"/><path transform="translate(121.50,410.00) scale(0.01400,-0.01400)" d="M294 584Q264 584 244.0 604.0Q224 624 224 652Q224 681 244.0 700.5Q264 720 294 720Q323 720 343.5 700.5Q364 681 364 652Q364 624 343.5 604.0Q323 584 294 584ZM100 0V72H258V399Q258 424 233 424H117V496H253Q342 496 342 407V72H500V0Z"/><path transform="translate(131.40,410.00) scale(0.01400,-0.01400)" d="M75 0V72H244V623Q244 648 219 648H93V720H239Q282 720 305.0 697.0Q328 674 328 631V72H497V0Z"/><path transform="translate(141.30,410.00) scale(0.01400,-0.01400)" d="M283 -12Q220 -12 170.5 18.0Q121 48 93.0 106.5Q65 165 65 249Q65 332 93.0 390.0Q121 448 170.5 478.0Q220 508 283 508Q342 508 380.5 485.0Q419 462 438 425V720H522V0H453L444 77H438Q418 36 379.0 12.0Q340 -12 283 -12ZM294 68Q357 68 398.0 112.5Q439 157 439 248Q439 339 398.0 383.5Q357 428 294 428Q231 428 190.5 383.5Q150 339 150 248Q150 157 190.5 112.5Q231 68 294 68Z"/><path transform="translate(180.90,410.00) scale(0.01400,-0.01400)" d="M300 278Q269 278 247.0 299.0Q225 320 225 351Q225 381 247.0 402.0Q269 423 300 423Q331 423 353.0 402.0Q375 381 375 351Q375 320 353.0 299.0Q331 278 300 278Z"/><path transform="translate(220.50,410.00) scale(0.01400,-0.01400)" d="M102 0V77L394 418H107V496H493V419L200 78H498V0Z"/><path transform="translate(230.40,410.00) scale(0.01400,-0.01400)" d="M305 -12Q235 -12 181.5 20.5Q128 53 97.0 111.5Q66 170 66 248Q66 326 96.5 384.5Q127 443 181.0 475.5Q235 508 307 508Q379 508 430.0 475.5Q481 443 508.0 390.0Q535 337 535 276Q535 265 534.5 254.0Q534 243 534 229H149Q152 174 174.5 137.5Q197 101 231.5 83.0Q266 65 305 65Q360 65 391.0 88.0Q422 111 438 152H521Q504 83 450.0 35.5Q396 -12 305 -12ZM305 433Q247 433 203.5 398.0Q160 363 150 300H452Q448 362 407.5 397.5Q367 433 305 433Z"/><path transform="translate(240.30,410.00) scale(0.01400,-0.01400)" d="M84 0V72H211V399Q211 424 187 424H97V496H218Q251 496 271.0 478.0Q291 460 291 425V404H295Q307 454 340.5 481.0Q374 508 434 508H525V419H422Q361 419 328.0 378.5Q295 338 295 275V72H451V0Z"/><path transform="translate(250.20,410.00) scale(0.01400,-0.01400)" d="M300 -12Q230 -12 176.0 20.0Q122 52 91.0 110.5Q60 169 60 248Q60 327 91.0 385.5Q122 444 176.0 476.0Q230 508 300 508Q370 508 424.0 476.0Q478 444 509.0 385.5Q540 327 540 248Q540 169 509.0 110.5Q478 52 424.0 20.0Q370 -12 300 -12ZM300 68Q343 68 378.0 87.0Q413 106 433.5 146.0Q454 186 454 248Q454 310 433.5 350.0Q413 390 378.0 409.0Q343 428 300 428Q258 428 223.0 409.0Q188 390 167.0 350.0Q146 310 146 248Q146 155 191.0 111.5Q236 68 300 68Z"/><path transform="translate(270.00,410.00) scale(0.01400,-0.01400)" d="M283 -12Q220 -12 170.5 18.0Q121 48 93.0 106.5Q65 165 65 249Q65 332 93.0 390.0Q121 448 170.5 478.0Q220 508 283 508Q342 508 380.5 485.0Q419 462 438 425V720H522V0H453L444 77H438Q418 36 379.0 12.0Q340 -12 283 -12ZM294 68Q357 68 398.0 112.5Q439 157 439 248Q439 339 398.0 383.5Q357 428 294 428Q231 428 190.5 383.5Q150 339 150 248Q150 157 190.5 112.5Q231 68 294 68Z"/><path transform="translate(279.90,410.00) scale(0.01400,-0.01400)" d="M305 -12Q235 -12 181.5 20.5Q128 53 97.0 111.5Q66 170 66 248Q66 326 96.5 384.5Q127 443 181.0 475.5Q235 508 307 508Q379 508 430.0 475.5Q481 443 508.0 390.0Q535 337 535 276Q535 265 534.5 254.0Q534 243 534 229H149Q152 174 174.5 137.5Q197 101 231.5 83.0Q266 65 305 65Q360 65 391.0 88.0Q422 111 438 152H521Q504 83 450.0 35.5Q396 -12 305 -12ZM305 433Q247 433 203.5 398.0Q160 363 150 300H452Q448 362 407.5 397.5Q367 433 305 433Z"/><path transform="translate(289.80,410.00) scale(0.01400,-0.01400)" d="M78 -220V496H146L156 414H162Q181 454 223.0 481.0Q265 508 322 508Q382 508 430.5 478.0Q479 448 507.0 389.5Q535 331 535 247Q535 164 506.5 106.0Q478 48 428.5 18.0Q379 -12 315 -12Q258 -12 218.5 12.5Q179 37 162 70V-220ZM305 68Q368 68 409.0 112.5Q450 157 450 248Q450 339 409.0 383.5Q368 428 305 428Q242 428 201.0 383.5Q160 339 160 248Q160 157 201.0 112.5Q242 68 305 68Z"/><path transform="translate(299.70,410.00) scale(0.01400,-0.01400)" d="M305 -12Q235 -12 181.5 20.5Q128 53 97.0 111.5Q66 170 66 248Q66 326 96.5 384.5Q127 443 181.0 475.5Q235 508 307 508Q379 508 430.0 475.5Q481 443 508.0 390.0Q535 337 535 276Q535 265 534.5 254.0Q534 243 534 229H149Q152 174 174.5 137.5Q197 101 231.5 83.0Q266 65 305 65Q360 65 391.0 88.0Q422 111 438 152H521Q504 83 450.0 35.5Q396 -12 305 -12ZM305 433Q247 433 203.5 398.0Q160 363 150 300H452Q448 362 407.5 397.5Q367 433 305 433Z"/><path transform="translate(309.60,410.00) scale(0.01400,-0.01400)" d="M88 0V496H158L167 421H172Q192 457 235.0 482.5Q278 508 334 508Q425 508 470.5 454.0Q516 400 516 298V0H432V288Q432 354 403.0 391.5Q374 429 313 429Q254 429 213.0 388.5Q172 348 172 272V0Z"/><path transform="translate(319.50,410.00) scale(0.01400,-0.01400)" d="M283 -12Q220 -12 170.5 18.0Q121 48 93.0 106.5Q65 165 65 249Q65 332 93.0 390.0Q121 448 170.5 478.0Q220 508 283 508Q342 508 380.5 485.0Q419 462 438 425V720H522V0H453L444 77H438Q418 36 379.0 12.0Q340 -12 283 -12ZM294 68Q357 68 398.0 112.5Q439 157 439 248Q439 339 398.0 383.5Q357 428 294 428Q231 428 190.5 383.5Q150 339 150 248Q150 157 190.5 112.5Q231 68 294 68Z"/><path transform="translate(329.40,410.00) scale(0.01400,-0.01400)" d="M305 -12Q235 -12 181.5 20.5Q128 53 97.0 111.5Q66 170 66 248Q66 326 96.5 384.5Q127 443 181.0 475.5Q235 508 307 508Q379 508 430.0 475.5Q481 443 508.0 390.0Q535 337 535 276Q535 265 534.5 254.0Q534 243 534 229H149Q152 174 174.5 137.5Q197 101 231.5 83.0Q266 65 305 65Q360 65 391.0 88.0Q422 111 438 152H521Q504 83 450.0 35.5Q396 -12 305 -12ZM305 433Q247 433 203.5 398.0Q160 363 150 300H452Q448 362 407.5 397.5Q367 433 305 433Z"/><path transform="translate(339.30,410.00) scale(0.01400,-0.01400)" d="M88 0V496H158L167 421H172Q192 457 235.0 482.5Q278 508 334 508Q425 508 470.5 454.0Q516 400 516 298V0H432V288Q432 354 403.0 391.5Q374 429 313 429Q254 429 213.0 388.5Q172 348 172 272V0Z"/><path transform="translate(349.20,410.00) scale(0.01400,-0.01400)" d="M308 -12Q241 -12 188.5 19.0Q136 50 105.0 108.5Q74 167 74 248Q74 329 105.0 387.5Q136 446 189.5 477.0Q243 508 308 508Q400 508 455.0 462.0Q510 416 525 339H439Q427 380 393.0 404.5Q359 429 307 429Q269 429 235.0 409.0Q201 389 180.0 349.0Q159 309 159 248Q159 187 180.0 146.5Q201 106 235.0 86.0Q269 66 307 66Q362 66 394.5 91.0Q427 116 439 157H525Q506 78 450.5 33.0Q395 -12 308 -12Z"/><path transform="translate(359.10,410.00) scale(0.01400,-0.01400)" d="M294 584Q264 584 244.0 604.0Q224 624 224 652Q224 681 244.0 700.5Q264 720 294 720Q323 720 343.5 700.5Q364 681 364 652Q364 624 343.5 604.0Q323 584 294 584ZM100 0V72H258V399Q258 424 233 424H117V496H253Q342 496 342 407V72H500V0Z"/><path transform="translate(369.00,410.00) scale(0.01400,-0.01400)" d="M305 -12Q235 -12 181.5 20.5Q128 53 97.0 111.5Q66 170 66 248Q66 326 96.5 384.5Q127 443 181.0 475.5Q235 508 307 508Q379 508 430.0 475.5Q481 443 508.0 390.0Q535 337 535 276Q535 265 534.5 254.0Q534 243 534 229H149Q152 174 174.5 137.5Q197 101 231.5 83.0Q266 65 305 65Q360 65 391.0 88.0Q422 111 438 152H521Q504 83 450.0 35.5Q396 -12 305 -12ZM305 433Q247 433 203.5 398.0Q160 363 150 300H452Q448 362 407.5 397.5Q367 433 305 433Z"/><path transform="translate(378.90,410.00) scale(0.01400,-0.01400)" d="M305 -12Q210 -12 151.5 32.5Q93 77 86 155H173Q179 114 213.5 88.0Q248 62 307 62Q363 62 390.5 86.0Q418 110 418 141Q418 183 385.0 198.5Q352 214 286 222Q207 231 155.0 265.0Q103 299 103 367Q103 428 154.0 468.0Q205 508 293 508Q380 508 430.0 468.5Q480 429 487 356H404Q401 392 369.5 413.5Q338 435 291 435Q242 435 215.0 416.5Q188 398 188 368Q188 338 218.5 318.5Q249 299 315 293Q367 287 410.0 273.0Q453 259 478.5 229.0Q504 199 504 145Q505 100 479.5 64.5Q454 29 409.0 8.5Q364 -12 305 -12Z"/><path transform="translate(418.50,410.00) scale(0.01400,-0.01400)" d="M300 278Q269 278 247.0 299.0Q225 320 225 351Q225 381 247.0 402.0Q269 423 300 423Q331 423 353.0 402.0Q375 381 375 351Q375 320 353.0 299.0Q331 278 300 278Z"/><path transform="translate(458.10,410.00) scale(0.01400,-0.01400)" d="M78 -220V496H146L156 414H162Q181 454 223.0 481.0Q265 508 322 508Q382 508 430.5 478.0Q479 448 507.0 389.5Q535 331 535 247Q535 164 506.5 106.0Q478 48 428.5 18.0Q379 -12 315 -12Q258 -12 218.5 12.5Q179 37 162 70V-220ZM305 68Q368 68 409.0 112.5Q450 157 450 248Q450 339 409.0 383.5Q368 428 305 428Q242 428 201.0 383.5Q160 339 160 248Q160 157 201.0 112.5Q242 68 305 68Z"/><path transform="translate(468.00,410.00) scale(0.01400,-0.01400)" d="M84 0V72H211V399Q211 424 187 424H97V496H218Q251 496 271.0 478.0Q291 460 291 425V404H295Q307 454 340.5 481.0Q374 508 434 508H525V419H422Q361 419 328.0 378.5Q295 338 295 275V72H451V0Z"/><path transform="translate(477.90,410.00) scale(0.01400,-0.01400)" d="M294 584Q264 584 244.0 604.0Q224 624 224 652Q224 681 244.0 700.5Q264 720 294 720Q323 720 343.5 700.5Q364 681 364 652Q364 624 343.5 604.0Q323 584 294 584ZM100 0V72H258V399Q258 424 233 424H117V496H253Q342 496 342 407V72H500V0Z"/><path transform="translate(487.80,410.00) scale(0.01400,-0.01400)" d="M251 0 33 496H129L300 92L472 496H567L348 0Z"/><path transform="translate(497.70,410.00) scale(0.01400,-0.01400)" d="M258 -12Q199 -12 160.0 9.0Q121 30 102.0 64.5Q83 99 83 140Q83 216 138.5 255.5Q194 295 287 295H423V305Q423 435 304 435Q256 435 223.5 414.0Q191 393 182 348H96Q101 398 129.5 434.0Q158 470 203.0 489.0Q248 508 304 508Q410 508 458.5 452.5Q507 397 507 305V0H435L428 77H421Q399 41 362.5 14.5Q326 -12 258 -12ZM273 62Q321 62 354.5 85.0Q388 108 405.5 146.0Q423 184 423 229H294Q226 229 198.5 206.0Q171 183 171 145Q171 106 197.0 84.0Q223 62 273 62Z"/><path transform="translate(507.60,410.00) scale(0.01400,-0.01400)" d="M352 0Q284 0 245.0 33.0Q206 66 206 152V424H80V496H155Q206 496 214 546L228 623H290V496H488V424H290V152Q290 110 309.5 93.0Q329 76 377 76H488V0Z"/><path transform="translate(517.50,410.00) scale(0.01400,-0.01400)" d="M305 -12Q235 -12 181.5 20.5Q128 53 97.0 111.5Q66 170 66 248Q66 326 96.5 384.5Q127 443 181.0 475.5Q235 508 307 508Q379 508 430.0 475.5Q481 443 508.0 390.0Q535 337 535 276Q535 265 534.5 254.0Q534 243 534 229H149Q152 174 174.5 137.5Q197 101 231.5 83.0Q266 65 305 65Q360 65 391.0 88.0Q422 111 438 152H521Q504 83 450.0 35.5Q396 -12 305 -12ZM305 433Q247 433 203.5 398.0Q160 363 150 300H452Q448 362 407.5 397.5Q367 433 305 433Z"/><path transform="translate(537.30,410.00) scale(0.01400,-0.01400)" d="M317 -12Q260 -12 220.5 11.5Q181 35 162 76H156L147 0H78V720H162V425Q181 458 221.5 483.0Q262 508 317 508Q381 508 430.0 478.0Q479 448 507.0 390.0Q535 332 535 249Q535 165 507.0 106.5Q479 48 429.5 18.0Q380 -12 317 -12ZM306 68Q369 68 409.5 112.5Q450 157 450 248Q450 339 409.5 383.5Q369 428 306 428Q243 428 202.0 383.5Q161 339 161 248Q161 157 202.0 112.5Q243 68 306 68Z"/><path transform="translate(547.20,410.00) scale(0.01400,-0.01400)" d="M149 -220 271 48H242L46 496H137L300 112L472 496H560L237 -220Z"/><path transform="translate(567.00,410.00) scale(0.01400,-0.01400)" d="M308 -12Q241 -12 188.5 19.0Q136 50 105.0 108.5Q74 167 74 248Q74 329 105.0 387.5Q136 446 189.5 477.0Q243 508 308 508Q400 508 455.0 462.0Q510 416 525 339H439Q427 380 393.0 404.5Q359 429 307 429Q269 429 235.0 409.0Q201 389 180.0 349.0Q159 309 159 248Q159 187 180.0 146.5Q201 106 235.0 86.0Q269 66 307 66Q362 66 394.5 91.0Q427 116 439 157H525Q506 78 450.5 33.0Q395 -12 308 -12Z"/><path transform="translate(576.90,410.00) scale(0.01400,-0.01400)" d="M300 -12Q230 -12 176.0 20.0Q122 52 91.0 110.5Q60 169 60 248Q60 327 91.0 385.5Q122 444 176.0 476.0Q230 508 300 508Q370 508 424.0 476.0Q478 444 509.0 385.5Q540 327 540 248Q540 169 509.0 110.5Q478 52 424.0 20.0Q370 -12 300 -12ZM300 68Q343 68 378.0 87.0Q413 106 433.5 146.0Q454 186 454 248Q454 310 433.5 350.0Q413 390 378.0 409.0Q343 428 300 428Q258 428 223.0 409.0Q188 390 167.0 350.0Q146 310 146 248Q146 155 191.0 111.5Q236 68 300 68Z"/><path transform="translate(586.80,410.00) scale(0.01400,-0.01400)" d="M88 0V496H158L167 421H172Q192 457 235.0 482.5Q278 508 334 508Q425 508 470.5 454.0Q516 400 516 298V0H432V288Q432 354 403.0 391.5Q374 429 313 429Q254 429 213.0 388.5Q172 348 172 272V0Z"/><path transform="translate(596.70,410.00) scale(0.01400,-0.01400)" d="M305 -12Q210 -12 151.5 32.5Q93 77 86 155H173Q179 114 213.5 88.0Q248 62 307 62Q363 62 390.5 86.0Q418 110 418 141Q418 183 385.0 198.5Q352 214 286 222Q207 231 155.0 265.0Q103 299 103 367Q103 428 154.0 468.0Q205 508 293 508Q380 508 430.0 468.5Q480 429 487 356H404Q401 392 369.5 413.5Q338 435 291 435Q242 435 215.0 416.5Q188 398 188 368Q188 338 218.5 318.5Q249 299 315 293Q367 287 410.0 273.0Q453 259 478.5 229.0Q504 199 504 145Q505 100 479.5 64.5Q454 29 409.0 8.5Q364 -12 305 -12Z"/><path transform="translate(606.60,410.00) scale(0.01400,-0.01400)" d="M352 0Q284 0 245.0 33.0Q206 66 206 152V424H80V496H155Q206 496 214 546L228 623H290V496H488V424H290V152Q290 110 309.5 93.0Q329 76 377 76H488V0Z"/><path transform="translate(616.50,410.00) scale(0.01400,-0.01400)" d="M84 0V72H211V399Q211 424 187 424H97V496H218Q251 496 271.0 478.0Q291 460 291 425V404H295Q307 454 340.5 481.0Q374 508 434 508H525V419H422Q361 419 328.0 378.5Q295 338 295 275V72H451V0Z"/><path transform="translate(626.40,410.00) scale(0.01400,-0.01400)" d="M265 -12Q175 -12 129.0 42.0Q83 96 83 198V496H167V208Q167 142 196.5 104.5Q226 67 286 67Q346 67 387.0 107.5Q428 148 428 224V496H512V0H442L433 75H428Q408 39 365.0 13.5Q322 -12 265 -12Z"/><path transform="translate(636.30,410.00) scale(0.01400,-0.01400)" d="M308 -12Q241 -12 188.5 19.0Q136 50 105.0 108.5Q74 167 74 248Q74 329 105.0 387.5Q136 446 189.5 477.0Q243 508 308 508Q400 508 455.0 462.0Q510 416 525 339H439Q427 380 393.0 404.5Q359 429 307 429Q269 429 235.0 409.0Q201 389 180.0 349.0Q159 309 159 248Q159 187 180.0 146.5Q201 106 235.0 86.0Q269 66 307 66Q362 66 394.5 91.0Q427 116 439 157H525Q506 78 450.5 33.0Q395 -12 308 -12Z"/><path transform="translate(646.20,410.00) scale(0.01400,-0.01400)" d="M352 0Q284 0 245.0 33.0Q206 66 206 152V424H80V496H155Q206 496 214 546L228 623H290V496H488V424H290V152Q290 110 309.5 93.0Q329 76 377 76H488V0Z"/><path transform="translate(656.10,410.00) scale(0.01400,-0.01400)" d="M294 584Q264 584 244.0 604.0Q224 624 224 652Q224 681 244.0 700.5Q264 720 294 720Q323 720 343.5 700.5Q364 681 364 652Q364 624 343.5 604.0Q323 584 294 584ZM100 0V72H258V399Q258 424 233 424H117V496H253Q342 496 342 407V72H500V0Z"/><path transform="translate(666.00,410.00) scale(0.01400,-0.01400)" d="M300 -12Q230 -12 176.0 20.0Q122 52 91.0 110.5Q60 169 60 248Q60 327 91.0 385.5Q122 444 176.0 476.0Q230 508 300 508Q370 508 424.0 476.0Q478 444 509.0 385.5Q540 327 540 248Q540 169 509.0 110.5Q478 52 424.0 20.0Q370 -12 300 -12ZM300 68Q343 68 378.0 87.0Q413 106 433.5 146.0Q454 186 454 248Q454 310 433.5 350.0Q413 390 378.0 409.0Q343 428 300 428Q258 428 223.0 409.0Q188 390 167.0 350.0Q146 310 146 248Q146 155 191.0 111.5Q236 68 300 68Z"/><path transform="translate(675.90,410.00) scale(0.01400,-0.01400)" d="M88 0V496H158L167 421H172Q192 457 235.0 482.5Q278 508 334 508Q425 508 470.5 454.0Q516 400 516 298V0H432V288Q432 354 403.0 391.5Q374 429 313 429Q254 429 213.0 388.5Q172 348 172 272V0Z"/><path transform="translate(715.50,410.00) scale(0.01400,-0.01400)" d="M300 278Q269 278 247.0 299.0Q225 320 225 351Q225 381 247.0 402.0Q269 423 300 423Q331 423 353.0 402.0Q375 381 375 351Q375 320 353.0 299.0Q331 278 300 278Z"/><path transform="translate(755.10,410.00) scale(0.01400,-0.01400)" d="M109 0 2 700H87L158 160L257 700H343L442 160L513 700H598L491 0H395L300 538L205 0Z"/><path transform="translate(765.00,410.00) scale(0.01400,-0.01400)" d="M305 -12Q220 -12 158.5 33.0Q97 78 64.5 159.0Q32 240 32 350Q32 459 64.5 540.5Q97 622 158.5 667.0Q220 712 305 712Q413 712 479.0 652.5Q545 593 556 494H463Q453 553 413.0 593.0Q373 633 305 633Q218 633 168.0 557.5Q118 482 118 350Q118 217 168.0 142.0Q218 67 305 67Q376 67 414.5 105.0Q453 143 463 203H556Q540 103 476.5 45.5Q413 -12 305 -12Z"/><path transform="translate(774.90,410.00) scale(0.01400,-0.01400)" d="M33 0 252 700H349L567 0H475L424 174H176L125 0ZM298 582 197 244H403L302 582Z"/><path transform="translate(784.80,410.00) scale(0.01400,-0.01400)" d="M293 -12Q219 -12 161.0 31.5Q103 75 70.5 156.0Q38 237 38 350Q38 462 71.0 543.0Q104 624 164.5 668.0Q225 712 308 712Q407 712 469.5 654.0Q532 596 544 498H451Q441 558 404.5 595.5Q368 633 308 633Q222 633 173.0 558.0Q124 483 124 350Q124 215 173.0 141.0Q222 67 300 67Q356 67 392.0 100.5Q428 134 446.5 186.5Q465 239 467 295H311V367H553V0H476L469 106H465Q444 52 403.5 20.0Q363 -12 293 -12Z"/><path transform="translate(804.60,410.00) scale(0.01400,-0.01400)" d="M33 0 252 700H349L567 0H475L424 174H176L125 0ZM298 582 197 244H403L302 582Z"/><path transform="translate(814.50,410.00) scale(0.01400,-0.01400)" d="M33 0 252 700H349L567 0H475L424 174H176L125 0ZM298 582 197 244H403L302 582Z"/></g></svg>
